<svg xmlns="http://www.w3.org/2000/svg" width="27" height="40" fill="none"><path fill="#1A1A1A" fill-rule="evenodd" d="M0 28V12h3.803q1.283 0 2.29.236 1.031.212 1.719.73.71.52 1.077 1.345.39.825.39 2.027 0 2.287-1.421 3.42-1.42 1.108-3.963 1.108H1.054V28zm1.054-8.054h2.589q2.313 0 3.436-.849 1.122-.848 1.122-2.759 0-1.956-1.168-2.688-1.146-.73-3.482-.73H1.054zM11.454 28V16.493h.871l.092 2.099h.069q.55-1.06 1.328-1.721.802-.66 1.787-.66.321 0 .573.047t.527.188l-.23.943a1.8 1.8 0 0 0-.48-.141 2.4 2.4 0 0 0-.527-.047q-.733 0-1.558.66-.803.636-1.443 2.24V28h-1.008Zm8.758-.398a4.5 4.5 0 0 0 1.867.398q.98 0 1.869-.398a4.44 4.44 0 0 0 1.571-1.146q.684-.748 1.071-1.825.41-1.099.41-2.502 0-1.404-.41-2.503-.387-1.123-1.07-1.872a4.44 4.44 0 0 0-1.572-1.146 4.5 4.5 0 0 0-1.869-.398q-.979 0-1.867.398a4.7 4.7 0 0 0-1.572 1.146q-.661.75-1.07 1.872-.389 1.1-.388 2.503 0 1.403.387 2.502.41 1.077 1.07 1.825.684.75 1.573 1.146m3.394-.865q-.707.35-1.527.35a3.4 3.4 0 0 1-1.526-.35q-.705-.375-1.23-1.03a5.2 5.2 0 0 1-.797-1.567 6.5 6.5 0 0 1-.296-2.011q0-1.123.296-2.036a5.2 5.2 0 0 1 .797-1.567 3.54 3.54 0 0 1 1.23-1.029q.707-.375 1.526-.374a3.2 3.2 0 0 1 1.527.374 3.3 3.3 0 0 1 1.23 1.03q.525.654.82 1.566a6.6 6.6 0 0 1 .296 2.036 6.5 6.5 0 0 1-.296 2.011 4.9 4.9 0 0 1-.82 1.567q-.501.655-1.23 1.03" clip-rule="evenodd"/></svg>