<svg width="240" height="240" viewBox="0 0 240 240" fill="none" xmlns="http://www.w3.org/2000/svg">
<circle cx="120" cy="120.001" r="93.0003" transform="rotate(-90 120 120.001)" fill="#FAFAFA" stroke="#F4F4F4" stroke-width="8" stroke-linecap="round"/>
<g filter="url(#filter0_d_12342_254481)">
<path opacity="0.7" d="M86.73 111.91L117.676 131.604C118.029 131.865 118.447 131.994 118.865 131.994C119.283 131.994 119.7 131.865 120.054 131.604L151 111.91L120.07 88.21C119.355 87.6758 118.375 87.6758 117.66 88.21L86.73 111.91Z" fill="url(#paint0_linear_12342_254481)"/>
<path d="M138.952 87.8065H98.783C96.5697 87.8065 94.7661 89.61 94.7661 91.8233V136.009C94.7661 137.117 95.6659 138.017 96.7745 138.017H140.96C142.069 138.017 142.968 137.117 142.968 136.009V91.8233C142.968 89.61 141.169 87.8065 138.952 87.8065Z" fill="white"/>
<path d="M138.952 87.3913H98.783C96.3404 87.3913 94.3509 89.3807 94.3509 91.8233V136.009C94.3509 137.347 95.4366 138.432 96.7745 138.432H140.96C142.298 138.432 143.384 137.347 143.384 136.009V91.8233C143.384 89.381 141.399 87.3913 138.952 87.3913Z" stroke="black" stroke-opacity="0.05" stroke-width="0.830419"/>
<path opacity="0.6" d="M118.235 120.764C116.904 120.764 115.627 120.553 114.402 120.133C113.196 119.712 112.123 119.072 111.182 118.213C110.26 117.353 109.523 116.283 108.973 115.003C108.423 113.704 108.148 112.177 108.148 110.422C108.148 108.501 108.468 106.764 109.106 105.209C109.745 103.636 110.606 102.292 111.688 101.177C112.788 100.061 114.065 99.2014 115.52 98.5979C116.975 97.9943 118.519 97.6926 120.151 97.6926C121.588 97.6926 122.883 97.9303 124.036 98.4058C125.207 98.8813 126.201 99.558 127.017 100.436C127.833 101.295 128.463 102.329 128.906 103.536C129.35 104.725 129.572 106.032 129.572 107.459C129.572 108.721 129.385 109.827 129.013 110.778C128.64 111.711 128.161 112.497 127.576 113.137C126.99 113.759 126.334 114.226 125.606 114.536C124.897 114.847 124.196 115.003 123.504 115.003C122.741 115.003 122.076 114.82 121.508 114.454C120.949 114.094 120.597 113.593 120.451 112.95C120.446 112.931 120.43 112.918 120.411 112.918C120.398 112.918 120.386 112.924 120.378 112.935C120.007 113.458 119.523 113.891 118.927 114.235C118.323 114.564 117.747 114.729 117.197 114.729C116.132 114.729 115.281 114.363 114.642 113.631C114.003 112.881 113.684 111.875 113.684 110.614C113.684 109.772 113.817 108.949 114.083 108.145C114.367 107.34 114.748 106.627 115.227 106.005C115.706 105.365 116.274 104.853 116.931 104.469C117.587 104.084 118.297 103.892 119.06 103.892C119.503 103.892 119.894 104.002 120.231 104.222C120.563 104.42 120.843 104.76 121.072 105.242C121.078 105.255 121.092 105.264 121.107 105.264C121.124 105.264 121.139 105.253 121.144 105.237L121.331 104.66C121.436 104.333 121.741 104.112 122.084 104.112H122.962C123.462 104.112 123.837 104.57 123.737 105.061L122.706 110.147C122.333 111.72 122.741 112.506 123.93 112.506C124.32 112.506 124.702 112.397 125.074 112.177C125.464 111.939 125.81 111.61 126.112 111.19C126.414 110.751 126.653 110.229 126.831 109.626C127.008 109.004 127.097 108.318 127.097 107.568C127.097 106.581 126.964 105.639 126.698 104.743C126.431 103.847 126.006 103.06 125.42 102.384C124.835 101.689 124.081 101.14 123.158 100.738C122.235 100.335 121.127 100.134 119.831 100.134C118.696 100.134 117.587 100.381 116.505 100.875C115.423 101.35 114.456 102.036 113.604 102.932C112.752 103.81 112.069 104.88 111.555 106.142C111.04 107.386 110.783 108.776 110.783 110.312C110.783 111.665 110.987 112.845 111.395 113.851C111.821 114.857 112.389 115.689 113.098 116.347C113.826 117.005 114.651 117.499 115.573 117.828C116.514 118.158 117.507 118.322 118.554 118.322C119.246 118.322 119.947 118.222 120.656 118.02C121.057 117.91 121.432 117.783 121.784 117.639C122.227 117.458 122.753 117.648 122.926 118.094L123.202 118.806C123.345 119.174 123.196 119.594 122.841 119.763C122.22 120.06 121.59 120.283 120.949 120.435C120.098 120.654 119.193 120.764 118.235 120.764ZM118.022 112.205C118.306 112.205 118.581 112.113 118.847 111.93C119.099 111.768 119.371 111.498 119.665 111.12C119.741 111.022 119.789 110.907 119.81 110.786L120.373 107.523C120.401 107.357 120.381 107.182 120.285 107.042C120.023 106.662 119.659 106.471 119.193 106.471C118.785 106.471 118.421 106.599 118.102 106.855C117.8 107.111 117.534 107.431 117.303 107.815C117.09 108.199 116.922 108.62 116.798 109.077C116.691 109.535 116.638 109.964 116.638 110.367C116.638 111.592 117.099 112.205 118.022 112.205Z" fill="#DDDDDD"/>
<path d="M120.054 131.595C119.7 131.857 119.283 131.985 118.865 131.985C118.447 131.985 118.029 131.857 117.676 131.595L86.73 111.901V148.053C86.73 150.27 88.5295 152.069 90.7469 152.069H146.983C149.2 152.069 151 150.27 151 148.053V111.901L120.054 131.595Z" fill="#E8E8E8"/>
<path opacity="0.7" d="M146.983 152.067H90.7469C88.4934 152.067 86.73 150.304 86.73 148.05C86.73 147.412 87.0353 146.809 87.5494 146.432L117.676 126.347C118.029 126.086 118.447 125.958 118.865 125.958C119.283 125.958 119.7 126.086 120.054 126.347L150.18 146.432C150.695 146.809 151 147.412 151 148.05C151 150.304 149.237 152.067 146.983 152.067Z" fill="url(#paint1_linear_12342_254481)"/>
<circle cx="140.001" cy="90.1986" r="7.68703" fill="#757575"/>
<path d="M137.877 92.317V91.3465H139.204V88.3534H138.06V87.6112C138.393 87.5568 138.675 87.4916 138.906 87.4155C139.136 87.3393 139.361 87.2469 139.579 87.1382H140.617V91.3465H141.761V92.317H137.877Z" fill="white"/>
</g>
<path d="M120.002 27.0006C138.396 27.0006 156.376 32.455 171.67 42.674C186.964 52.893 198.884 67.4176 205.923 84.4112C210.619 95.749 213.002 107.846 213.002 120" stroke="#FF8000" stroke-width="17" stroke-linecap="round"/>
<path d="M120.001 26.9998C144.666 26.9998 168.321 36.798 185.762 54.2389C203.203 71.6799 213.001 95.3348 213.001 120" stroke="#FFCC99" stroke-width="3" stroke-linecap="round" stroke-dasharray="0.09 7.11"/>
<path d="M200 118L212.868 129L225 118" stroke="#FF8000" stroke-width="4" stroke-linecap="round"/>
<defs>
<filter id="filter0_d_12342_254481" x="83.0392" y="78.8208" width="71.6515" height="76.9394" filterUnits="userSpaceOnUse" color-interpolation-filters="sRGB">
<feFlood flood-opacity="0" result="BackgroundImageFix"/>
<feColorMatrix in="SourceAlpha" type="matrix" values="0 0 0 0 0 0 0 0 0 0 0 0 0 0 0 0 0 0 127 0" result="hardAlpha"/>
<feOffset/>
<feGaussianBlur stdDeviation="1.84538"/>
<feColorMatrix type="matrix" values="0 0 0 0 0.101961 0 0 0 0 0.101961 0 0 0 0 0.101961 0 0 0 0.1 0"/>
<feBlend mode="normal" in2="BackgroundImageFix" result="effect1_dropShadow_12342_254481"/>
<feBlend mode="normal" in="SourceGraphic" in2="effect1_dropShadow_12342_254481" result="shape"/>
</filter>
<linearGradient id="paint0_linear_12342_254481" x1="86.7325" y1="131.999" x2="151.021" y2="131.999" gradientUnits="userSpaceOnUse">
<stop stop-opacity="0.1"/>
<stop offset="1" stop-opacity="0.2"/>
</linearGradient>
<linearGradient id="paint1_linear_12342_254481" x1="86.7325" y1="152.07" x2="151.021" y2="152.07" gradientUnits="userSpaceOnUse">
<stop stop-opacity="0.1"/>
<stop offset="1" stop-opacity="0.2"/>
</linearGradient>
</defs>
</svg>
