<svg width="240" height="240" viewBox="0 0 240 240" fill="none" xmlns="http://www.w3.org/2000/svg">
<circle cx="120" cy="120.001" r="92.9998" transform="rotate(-90 120 120.001)" fill="#FAFAFA" stroke="#F4F4F4" stroke-width="8" stroke-linecap="round"/>
<rect opacity="0.75" x="127.163" y="51.0332" width="93.4441" height="93.4441" rx="8" transform="rotate(56.2908 127.163 51.0332)" fill="#E5EEFF"/>
<rect x="120.773" y="80.8184" width="76.5644" height="76.5644" rx="8" transform="rotate(23.698 120.773 80.8184)" fill="#D9E5FF"/>
<path fill-rule="evenodd" clip-rule="evenodd" d="M190.313 30.5587C189.597 32.1159 187.755 32.7984 186.198 32.083C184.64 31.3676 183.958 29.5253 184.673 27.968C185.389 26.4108 187.231 25.7284 188.788 26.4438C190.346 27.1592 191.028 29.0015 190.313 30.5587ZM186.082 28.6153C185.725 29.3939 186.066 30.315 186.844 30.6727C187.623 31.0304 188.544 30.6892 188.902 29.9106C189.26 29.132 188.918 28.2108 188.14 27.8531C187.361 27.4955 186.44 27.8367 186.082 28.6153Z" fill="#0055FF"/>
<path fill-rule="evenodd" clip-rule="evenodd" d="M34.9347 195.41C34.2193 196.967 32.377 197.65 30.8197 196.934C29.2625 196.219 28.5801 194.377 29.2955 192.82C30.0109 191.262 31.8532 190.58 33.4104 191.295C34.9676 192.011 35.6501 193.853 34.9347 195.41ZM30.7044 193.467C30.3467 194.245 30.6879 195.167 31.4665 195.524C32.2452 195.882 33.1663 195.541 33.524 194.762C33.8817 193.983 33.5405 193.062 32.7619 192.705C31.9833 192.347 31.0621 192.688 30.7044 193.467Z" fill="#FFB700"/>
<path fill-rule="evenodd" clip-rule="evenodd" d="M229.935 144.41C229.219 145.967 227.377 146.65 225.82 145.935C224.263 145.219 223.58 143.377 224.295 141.82C225.011 140.262 226.853 139.58 228.41 140.295C229.968 141.011 230.65 142.853 229.935 144.41ZM225.704 142.467C225.347 143.245 225.688 144.167 226.467 144.524C227.245 144.882 228.166 144.541 228.524 143.762C228.882 142.984 228.54 142.062 227.762 141.705C226.983 141.347 226.062 141.688 225.704 142.467Z" fill="#FFB700"/>
<path fill-rule="evenodd" clip-rule="evenodd" d="M212.895 43.0765C212.389 43.2639 211.827 43.0056 211.639 42.4995C211.452 41.9933 211.71 41.431 212.216 41.2436L214.966 40.2251C215.472 40.0377 216.034 40.296 216.222 40.8021C216.409 41.3083 216.151 41.8706 215.645 42.0581L212.895 43.0765ZM208.106 38.5946C207.918 38.0885 208.176 37.5262 208.683 37.3387C209.189 37.1512 209.751 37.4095 209.939 37.9157L210.957 40.6651C211.144 41.1712 210.886 41.7335 210.38 41.921C209.874 42.1085 209.312 41.8501 209.124 41.344L208.106 38.5946ZM210.483 45.0099C210.295 44.5037 210.554 43.9415 211.06 43.754C211.566 43.5665 212.128 43.8248 212.316 44.331L213.334 47.0803C213.522 47.5865 213.263 48.1488 212.757 48.3362C212.251 48.5237 211.689 48.2654 211.501 47.7593L210.483 45.0099ZM205.221 44.874C205.408 45.3801 205.971 45.6384 206.477 45.4509L209.226 44.4325C209.732 44.245 209.991 43.6827 209.803 43.1766C209.616 42.6705 209.053 42.4121 208.547 42.5996L205.798 43.618C205.292 43.8055 205.033 44.3678 205.221 44.874Z" fill="#FF5975"/>
<g filter="url(#filter0_d_12342_254503)">
<path d="M137.437 156.381C137.698 156.381 137.949 156.279 138.136 156.096L154.68 139.912C154.873 139.724 154.981 139.466 154.981 139.197V81.1305C154.981 79.0817 153.305 77.4053 151.256 77.4053H93.5138C91.465 77.4053 89.7886 79.0817 89.7886 81.1305V152.656C89.7886 154.705 91.465 156.381 93.5138 156.381L137.437 156.381Z" fill="white"/>
<path d="M137.437 156.862C137.824 156.862 138.196 156.711 138.473 156.44L155.017 140.256C155.302 139.977 155.462 139.595 155.462 139.197V81.1305C155.462 78.816 153.57 76.9243 151.256 76.9243H93.5138C91.1993 76.9243 89.3076 78.816 89.3076 81.1305V152.656C89.3076 154.971 91.1993 156.862 93.5138 156.862L137.437 156.862Z" stroke="black" stroke-opacity="0.05" stroke-width="0.96201"/>
<path opacity="0.6" d="M145.864 91.5556H98.8969C98.3905 91.5556 97.98 91.9661 97.98 92.4725V94.5502C97.98 95.0566 98.3905 95.4671 98.8969 95.4671H145.864C146.371 95.4671 146.781 95.0566 146.781 94.5502V92.4725C146.781 91.9661 146.371 91.5556 145.864 91.5556Z" fill="#CED6E0"/>
<path opacity="0.6" d="M145.865 99.1355H98.8974C98.391 99.1355 97.9805 99.546 97.9805 100.052V102.13C97.9805 102.637 98.391 103.047 98.8974 103.047H145.865C146.371 103.047 146.782 102.637 146.782 102.13V100.052C146.782 99.546 146.371 99.1355 145.865 99.1355Z" fill="#CED6E0"/>
<path opacity="0.6" d="M145.865 107.021H98.8974C98.391 107.021 97.9805 107.431 97.9805 107.938V110.015C97.9805 110.522 98.391 110.932 98.8974 110.932H145.865C146.371 110.932 146.782 110.522 146.782 110.015V107.938C146.782 107.431 146.371 107.021 145.865 107.021Z" fill="#CED6E0"/>
<path opacity="0.6" d="M120.16 114.932H98.8974C98.391 114.932 97.9805 115.343 97.9805 115.849V117.927C97.9805 118.433 98.391 118.844 98.8974 118.844H120.16C120.667 118.844 121.077 118.433 121.077 117.927V115.849C121.077 115.343 120.667 114.932 120.16 114.932Z" fill="#CED6E0"/>
<path d="M86.5779 159.783C85.9873 159.892 85.2913 159.424 85.1854 158.849C85.0795 158.273 84.8677 157.122 85.4583 157.014C89.2735 154.526 91.5898 150.529 92.2409 147.434L86.8823 144.85C85.4899 143.916 84.2028 143.558 82.7044 142.048C80.4036 139.496 80.1468 134.782 82.7809 132.512C85.309 129.667 90.1385 129.373 93.0293 131.817C95.8148 133.685 97.0403 137.03 96.2224 142.536C95.8436 143.796 96.0555 144.947 95.6773 146.207C96.9639 146.565 98.8409 146.815 99.4315 146.706C99.9161 146.021 100.991 145.229 101.37 143.969C102.338 142.6 103.202 140.656 104.973 140.33C105.564 140.222 106.154 140.113 106.26 140.689C106.956 141.156 107.062 141.731 107.062 141.731C107.168 142.307 107.168 142.307 107.274 142.882C107.97 143.349 107.97 143.349 108.666 143.816C109.847 143.599 111.028 143.381 111.997 142.013C112.481 141.329 113.071 141.22 113.177 141.796C113.768 141.687 113.874 142.263 114.57 142.73C115.372 143.772 117.355 144.598 119.021 143.696C120.792 143.37 122.836 141.209 123.805 139.84C124.289 139.156 124.879 139.047 125.576 139.514C127.665 140.915 130.238 141.632 133.19 141.089C133.781 140.98 135.067 141.338 135.173 141.914C135.279 142.489 134.9 143.749 134.31 143.858C131.359 144.401 128.3 144.368 125.515 142.501C123.956 143.978 122.397 145.455 120.035 145.89C117.779 146.9 115.206 146.183 113.117 144.782C111.452 145.684 110.377 146.476 108.5 146.227C107.319 146.444 105.926 145.511 104.534 144.576L104.428 144.001C103.943 144.685 103.943 144.685 103.459 145.369C102.49 146.737 102.112 147.997 100.446 148.899C98.1903 149.909 96.3132 149.659 94.3302 148.834C93.4053 153.765 90.4984 157.871 86.5779 159.783ZM87.7151 132.794C86.5345 133.012 85.9439 133.12 85.4593 133.805C83.8999 135.282 83.839 138.269 85.3379 139.778C86.1403 140.821 87.4269 141.179 88.7134 141.538L93.376 143.655C93.7548 142.395 93.6488 141.819 93.5429 141.244C93.982 136.997 92.9684 134.804 91.4694 133.294C90.1828 132.935 88.8963 132.577 87.7151 132.794Z" fill="#1A1A1A" fill-opacity="0.1"/>
<path d="M83.5779 156.782C82.9873 156.891 82.2913 156.424 82.1854 155.849C82.0795 155.273 81.8677 154.122 82.4583 154.013C86.2735 151.526 88.5898 147.529 89.2409 144.434L83.8823 141.85C82.4899 140.916 81.2028 140.557 79.7044 139.048C77.4036 136.496 77.1468 131.782 79.7809 129.512C82.309 126.666 87.1385 126.373 90.0293 128.816C92.8148 130.684 94.0403 134.029 93.2224 139.536C92.8436 140.795 93.0555 141.947 92.6773 143.206C93.9639 143.565 95.8409 143.814 96.4315 143.706C96.9161 143.021 97.9909 142.229 98.3696 140.968C99.3384 139.6 100.202 137.656 101.973 137.33C102.564 137.221 103.154 137.113 103.26 137.689C103.956 138.156 104.062 138.731 104.062 138.731C104.168 139.307 104.168 139.307 104.274 139.882C104.97 140.349 104.97 140.349 105.666 140.816C106.847 140.598 108.028 140.381 108.997 139.013C109.481 138.328 110.071 138.22 110.177 138.796C110.768 138.687 110.874 139.263 111.57 139.729C112.372 140.772 114.355 141.597 116.021 140.696C117.792 140.37 119.836 138.208 120.805 136.84C121.289 136.156 121.879 136.047 122.576 136.514C124.665 137.915 127.238 138.631 130.19 138.088C130.781 137.979 132.067 138.338 132.173 138.913C132.279 139.489 131.9 140.749 131.31 140.857C128.359 141.4 125.3 141.368 122.515 139.5C120.956 140.977 119.397 142.455 117.035 142.889C114.779 143.9 112.206 143.183 110.117 141.782C108.452 142.684 107.377 143.476 105.5 143.227C104.319 143.444 102.926 142.51 101.534 141.576L101.428 141C100.943 141.685 100.943 141.685 100.459 142.369C99.4902 143.737 99.1115 144.997 97.4462 145.898C95.1903 146.909 93.3132 146.659 91.3302 145.834C90.4053 150.765 87.4984 154.87 83.5779 156.782ZM84.7151 129.794C83.5345 130.011 82.9439 130.12 82.4593 130.804C80.8999 132.281 80.839 135.268 82.3379 136.778C83.1403 137.82 84.4269 138.179 85.7134 138.537L90.376 140.655C90.7548 139.395 90.6488 138.819 90.5429 138.243C90.982 133.997 89.9684 131.803 88.4694 130.294C87.1828 129.935 85.8963 129.577 84.7151 129.794Z" fill="#0055FF"/>
</g>
<path d="M120.001 27C126.122 27 138.144 28.7869 138.144 28.7869" stroke="#0055FF" stroke-width="17" stroke-linecap="round"/>
<path d="M120.001 27.0013C126.064 27.0013 132.067 27.5934 137.931 28.7457" stroke="#B3CCFF" stroke-width="3" stroke-linecap="round" stroke-dasharray="0.09 7.11"/>
<path d="M135.752 41.7464L148.971 31.1709L140.443 17.1903" stroke="#0055FF" stroke-width="4" stroke-linecap="round"/>
<path fill-rule="evenodd" clip-rule="evenodd" d="M148.463 160.75C141.421 160.75 135.713 155.042 135.713 148C135.713 140.958 141.421 135.25 148.463 135.25C155.505 135.25 161.213 140.958 161.213 148C161.213 155.042 155.505 160.75 148.463 160.75ZM146.209 151.046L154.736 142.519C155.006 142.249 155.443 142.249 155.713 142.519L156.54 143.345C156.809 143.615 156.809 144.052 156.54 144.322L146.697 154.164C146.428 154.434 145.991 154.434 145.721 154.164L140.387 148.83C140.117 148.56 140.117 148.123 140.387 147.853L141.213 147.027C141.483 146.757 141.92 146.757 142.19 147.027L146.209 151.046Z" fill="#00BF4D"/>
<path fill-rule="evenodd" clip-rule="evenodd" d="M146.216 151.044L154.744 142.517C155.013 142.247 155.45 142.247 155.72 142.517L156.547 143.343C156.816 143.613 156.816 144.05 156.547 144.32L146.704 154.162C146.435 154.432 145.998 154.432 145.728 154.162L140.394 148.828C140.124 148.558 140.124 148.121 140.394 147.851L141.22 147.024C141.49 146.755 141.927 146.755 142.197 147.024L146.216 151.044Z" fill="white"/>
<path d="M68.7328 83.2352C67.8783 80.2236 69.6269 77.0895 72.6385 76.2349L94.4503 70.0457C97.4619 69.1912 100.596 70.9398 101.451 73.9514L107.64 95.7632C108.494 98.7748 106.746 101.909 103.734 102.763L81.9223 108.953C78.9107 109.807 75.7766 108.059 74.922 105.047L68.7328 83.2352Z" fill="#E667E6"/>
<path fill-rule="evenodd" clip-rule="evenodd" d="M91.281 100.405L94.6157 86.2018L92.2164 80.9906L80.3505 84.3577L80.9833 90.0701L91.281 100.405ZM90.4844 97.598L93.1249 86.3521L91.4365 82.685L81.891 85.3935L82.3372 89.4212L90.4844 97.598Z" fill="white"/>
<path fill-rule="evenodd" clip-rule="evenodd" d="M89.8252 97.8722L87.8911 91.056L89.2544 90.6692L91.1885 97.4854L89.8252 97.8722Z" fill="white"/>
<path fill-rule="evenodd" clip-rule="evenodd" d="M76.9126 80.9142L81.1864 85.5935L92.0923 82.4989L93.2715 76.2723L76.9126 80.9142ZM79.4946 81.6486L81.6402 83.9978L90.868 81.3794L91.46 78.2533L79.4946 81.6486Z" fill="white"/>
<path fill-rule="evenodd" clip-rule="evenodd" d="M87.2192 86.0911C86.0899 86.4116 85.4342 87.5869 85.7546 88.7162C86.0751 89.8455 87.2504 90.5013 88.3797 90.1808C89.5091 89.8604 90.1648 88.6851 89.8443 87.5557C89.5239 86.4264 88.3486 85.7706 87.2192 86.0911ZM84.3914 89.103C83.8573 87.2208 84.9502 85.262 86.8324 84.7279C88.7147 84.1938 90.6735 85.2867 91.2076 87.1689C91.7417 89.0511 90.6488 91.01 88.7665 91.5441C86.8843 92.0782 84.9255 90.9853 84.3914 89.103Z" fill="white"/>
<defs>
<filter id="filter0_d_12342_254503" x="73.616" y="72.1677" width="86.6025" height="91.9066" filterUnits="userSpaceOnUse" color-interpolation-filters="sRGB">
<feFlood flood-opacity="0" result="BackgroundImageFix"/>
<feColorMatrix in="SourceAlpha" type="matrix" values="0 0 0 0 0 0 0 0 0 0 0 0 0 0 0 0 0 0 127 0" result="hardAlpha"/>
<feOffset/>
<feGaussianBlur stdDeviation="2.1378"/>
<feColorMatrix type="matrix" values="0 0 0 0 0.101961 0 0 0 0 0.101961 0 0 0 0 0.101961 0 0 0 0.1 0"/>
<feBlend mode="normal" in2="BackgroundImageFix" result="effect1_dropShadow_12342_254503"/>
<feBlend mode="normal" in="SourceGraphic" in2="effect1_dropShadow_12342_254503" result="shape"/>
</filter>
</defs>
</svg>
