<svg width="80" height="80" viewBox="0 0 80 80" fill="none" xmlns="http://www.w3.org/2000/svg">
<rect x="-0.999023" y="27.0001" width="61.3481" height="61.3481" rx="9.58156" transform="rotate(-27.6313 -0.999023 27.0001)" fill="#F4F4F4"/>
<path fill-rule="evenodd" clip-rule="evenodd" d="M75 4V2H76V4H78V5H76V7H75V5H73V4H75Z" fill="#0055FF"/>
<path fill-rule="evenodd" clip-rule="evenodd" d="M6 73V71H7V73H9V74H7V76H6V74H4V73H6Z" fill="#0055FF"/>
<circle cx="14.5" cy="19.5" r="7.5" fill="#00CC44"/>
<circle cx="14.5" cy="40.5" r="7.5" fill="#00CC44"/>
<circle cx="14.5" cy="60.5" r="7" fill="white" stroke="#FFB700"/>
<rect x="25" y="15" width="49" height="9" rx="1" fill="#B3CCFF"/>
<rect x="25" y="36" width="49" height="9" rx="1" fill="#B3CCFF"/>
<rect x="25" y="56" width="49" height="9" rx="1" fill="#B3CCFF"/>
<path fill-rule="evenodd" clip-rule="evenodd" d="M13.4719 21.8523L18.4319 16L19 16.5L13.4719 23L10 19.75L10.496 19.1761L13.4719 21.8523Z" fill="white"/>
<path fill-rule="evenodd" clip-rule="evenodd" d="M13.4719 42.8523L18.4319 37L19 37.5L13.4719 44L10 40.75L10.496 40.1761L13.4719 42.8523Z" fill="white"/>
<rect x="43.5" y="40.5" width="26" height="34.1" rx="1.5" fill="white" stroke="#DDDDDD"/>
<path d="M50.2028 71.2858C50.0342 71.2858 49.8658 71.1173 49.8658 70.9489C49.8658 70.7803 49.8658 70.4433 50.0343 70.4433C51.214 69.9378 52.0565 68.9267 52.3934 68.0842L51.0454 67.0732C50.7084 66.7362 50.3713 66.5676 50.0343 66.0621C49.5288 65.2196 49.6974 63.8714 50.5399 63.3659C51.3824 62.6918 52.7306 62.8604 53.4045 63.7029C54.0786 64.377 54.247 65.388 53.7415 66.9046C53.5729 67.2416 53.5729 67.5787 53.4045 67.9157C53.7415 68.0842 54.247 68.2526 54.4156 68.2526C54.5841 68.0841 54.9211 67.9157 55.0897 67.5785C55.4266 67.2416 55.7638 66.736 56.2693 66.736C56.4379 66.736 56.6063 66.736 56.6063 66.9046C56.7748 67.0732 56.7748 67.2416 56.7748 67.2416C56.7748 67.4101 56.7748 67.4101 56.7748 67.5785C56.9434 67.7471 56.9434 67.7471 57.1118 67.9155C57.4488 67.9155 57.7859 67.9155 58.1229 67.5785C58.2914 67.41 58.4598 67.41 58.4598 67.5785C58.6284 67.5785 58.6284 67.7471 58.7968 67.9155C58.9654 68.2525 59.4709 68.5896 59.9764 68.421C60.482 68.421 61.1561 67.9155 61.493 67.5785C61.6616 67.41 61.83 67.41 61.9986 67.5785C62.5041 68.0841 63.1782 68.421 64.0207 68.421C64.1892 68.421 64.5262 68.5896 64.5262 68.758C64.5262 68.9266 64.3577 69.2635 64.1892 69.2635C63.3467 69.2635 62.5041 69.095 61.8302 68.421C61.3246 68.758 60.8191 69.0951 60.145 69.0951C59.4709 69.2637 58.797 68.9266 58.2914 68.421C57.7859 68.5896 57.4489 68.758 56.9434 68.5896C56.6064 68.5896 56.2693 68.2526 55.9323 67.9155V67.747C55.7638 67.9155 55.7638 67.9155 55.5954 68.0839C55.2584 68.4209 55.0898 68.758 54.5843 68.9264C53.9102 69.095 53.4047 68.9264 52.8991 68.5894C52.3933 69.9376 51.3822 70.9487 50.2028 71.2858ZM51.8878 63.7029C51.5508 63.7029 51.3822 63.7029 51.2137 63.8714C50.7081 64.2084 50.5396 65.051 50.8767 65.5566C51.0453 65.8935 51.3822 66.0621 51.7192 66.2307L52.8988 67.0732C53.0674 66.7362 53.0674 66.5676 53.0674 66.3991C53.4044 65.2195 53.2359 64.5455 52.8988 64.04C52.5619 63.8713 52.2249 63.7029 51.8878 63.7029Z" fill="#0055FF"/>
<rect x="47.0498" y="46.75" width="18.9" height="1.35" rx="0.675" fill="#DDDDDD"/>
<rect x="47.0498" y="50.8" width="18.9" height="1.35" rx="0.675" fill="#DDDDDD"/>
<rect x="47.0498" y="54.85" width="18.9" height="1.35" rx="0.675" fill="#DDDDDD"/>
<rect x="47.0498" y="58.9" width="18.9" height="1.35" rx="0.675" fill="#DDDDDD"/>
</svg>
