<svg width="320" height="160" viewBox="0 0 320 160" fill="none" xmlns="http://www.w3.org/2000/svg">
<rect width="320" height="160" fill="#CFF2F3"/>
<path d="M33.625 125.884C104.438 125.884 120.927 57.1337 149.207 21.9743C112.191 95.4124 89.4232 150.06 157.178 94.5689C247.738 20.4011 225.855 21.9639 205.005 78.6266C199.11 94.6496 177.727 136.066 285.999 89.1138" stroke="#9FE6E8" stroke-width="7.78857" stroke-linecap="round"/>
<path d="M181.633 38.4041C172.454 37.3654 152.401 36.2873 143.956 40.129C135.448 43.9998 129.575 52.2975 127.702 55.9625C122.9 66.8591 118.571 94.7766 139.598 119.385C139.652 119.447 139.741 119.465 139.809 119.424L189.147 90.0701C189.242 90.0134 189.256 89.8808 189.17 89.8037C182.755 84.0138 172.568 65.9712 181.77 38.6323C181.805 38.5302 181.741 38.4162 181.633 38.4041Z" fill="white"/>
<path d="M143.956 40.129C152.401 36.2873 172.454 37.3654 181.633 38.4041C181.741 38.4162 181.805 38.5302 181.77 38.6323C172.568 65.9712 182.755 84.0138 189.17 89.8037C189.256 89.8808 189.242 90.0134 189.147 90.0701L139.809 119.424C139.741 119.465 139.652 119.447 139.598 119.385C118.571 94.7766 122.9 66.8591 127.702 55.9625M143.956 40.129C135.448 43.9998 129.575 52.2975 127.702 55.9625M143.956 40.129L143.257 53.0301C143.253 53.1051 143.2 53.1662 143.128 53.1793L127.702 55.9625" stroke="black" stroke-width="2"/>
<path d="M156.777 84.323C156.368 80.1465 156.368 80.1465 152.2 80.5543C148.032 80.9622 148.032 80.9622 148.44 85.1387C148.666 87.4453 150.715 89.1325 153.017 88.9073C155.32 88.682 157.003 86.6296 156.777 84.323Z" fill="black"/>
<path d="M143.114 73.7132C142.934 71.8732 142.037 70.3049 140.69 70.4367C139.342 70.5685 138.766 72.2811 138.946 74.121C139.126 75.961 140.023 77.5293 141.371 77.3975C142.718 77.2657 143.294 75.5531 143.114 73.7132Z" fill="black"/>
<path d="M163.595 73.3831C163.572 73.1511 163.335 70.7277 161.251 70.9316C159.166 71.1356 159.426 73.791 159.426 73.791C159.606 75.6309 160.221 74.3118 161.568 74.18C162.916 74.0482 163.775 75.2231 163.595 73.3831Z" fill="black"/>
<path d="M195.345 32.167C195.478 30.9176 196.599 30.0128 197.848 30.1461C199.097 30.2793 200.002 31.4001 199.869 32.6495L194.899 79.2501L190.374 78.7676L195.345 32.167Z" fill="#1A1A1A"/>
<path d="M190.371 78.7666L194.895 79.2491L191.62 88.509L190.371 78.7666Z" fill="#1A1A1A"/>
<path fill-rule="evenodd" clip-rule="evenodd" d="M197.154 38.7656C197.194 38.3908 197.53 38.1193 197.905 38.1593L201.751 38.5695L200.376 51.4638C200.336 51.8386 199.999 52.1101 199.625 52.0701C199.25 52.0301 198.978 51.6939 199.018 51.319L200.249 39.782L197.76 39.5166C197.386 39.4766 197.114 39.1404 197.154 38.7656Z" fill="#1A1A1A"/>
<path d="M153.191 100.825C165.433 97.6932 166.348 90.6058 168.849 84.8824C166.572 96.0362 167.081 101.089 170.557 92.2842C174.827 81.4661 174.827 81.7508 174.827 89.4373C174.827 92.2553 177.203 95.8889 189.961 85.6853" stroke="#0055FF" stroke-width="1.42781" stroke-linecap="round"/>
<ellipse opacity="0.2" cx="150.538" cy="138.329" rx="29.6867" ry="4.63004" fill="#0FC0C5"/>
<mask id="path-10-outside-1_11997_316220" maskUnits="userSpaceOnUse" x="117.516" y="81.8999" width="29" height="37" fill="black">
<rect fill="white" x="117.516" y="81.8999" width="29" height="37"/>
<path d="M137.583 95.8229L129.527 104.144L125.956 100.455C125.454 99.937 124.632 99.937 124.13 100.455C123.641 100.96 123.641 101.77 124.13 102.275L128.177 106.455C128.919 107.221 130.136 107.221 130.878 106.455L139.409 97.6429C139.898 97.1378 139.898 96.3281 139.409 95.8229C138.907 95.305 138.085 95.305 137.583 95.8229Z"/>
<path fill-rule="evenodd" clip-rule="evenodd" d="M132.439 84.6008L131.763 83.8999L131.086 84.6008C129.653 86.0856 125.289 89.1664 119.717 89.1664H118.838L118.773 90.0568C118.439 94.6712 118.174 100.341 119.699 105.365C121.249 110.469 124.644 114.895 131.496 116.938L131.763 117.017L132.029 116.938C138.881 114.895 142.276 110.469 143.826 105.365C145.351 100.341 145.086 94.6712 144.752 90.0568L144.687 89.1664H143.808C138.236 89.1664 133.872 86.0856 132.439 84.6008Z"/>
</mask>
<path d="M137.583 95.8229L129.527 104.144L125.956 100.455C125.454 99.937 124.632 99.937 124.13 100.455C123.641 100.96 123.641 101.77 124.13 102.275L128.177 106.455C128.919 107.221 130.136 107.221 130.878 106.455L139.409 97.6429C139.898 97.1378 139.898 96.3281 139.409 95.8229C138.907 95.305 138.085 95.305 137.583 95.8229Z" fill="#0055FF"/>
<path fill-rule="evenodd" clip-rule="evenodd" d="M132.439 84.6008L131.763 83.8999L131.086 84.6008C129.653 86.0856 125.289 89.1664 119.717 89.1664H118.838L118.773 90.0568C118.439 94.6712 118.174 100.341 119.699 105.365C121.249 110.469 124.644 114.895 131.496 116.938L131.763 117.017L132.029 116.938C138.881 114.895 142.276 110.469 143.826 105.365C145.351 100.341 145.086 94.6712 144.752 90.0568L144.687 89.1664H143.808C138.236 89.1664 133.872 86.0856 132.439 84.6008Z" fill="#0055FF"/>
<path d="M131.763 83.8999L132.447 83.2389L131.763 82.5291L131.078 83.2389L131.763 83.8999ZM132.439 84.6008L131.754 85.2618V85.2618L132.439 84.6008ZM131.086 84.6008L130.401 83.9398V83.9398L131.086 84.6008ZM118.838 89.1664V88.2145H117.952L117.888 89.0977L118.838 89.1664ZM118.773 90.0568L117.824 89.988L118.773 90.0568ZM119.699 105.365L120.61 105.089L119.699 105.365ZM131.496 116.938L131.768 116.025L131.768 116.025L131.496 116.938ZM131.763 117.017L131.491 117.929L131.763 118.01L132.034 117.929L131.763 117.017ZM132.029 116.938L131.757 116.025L131.757 116.025L132.029 116.938ZM143.826 105.365L142.915 105.089L143.826 105.365ZM144.752 90.0568L145.701 89.988V89.988L144.752 90.0568ZM144.687 89.1664L145.637 89.0977L145.573 88.2145H144.687V89.1664ZM129.527 104.144L128.844 104.806L129.527 105.513L130.211 104.806L129.527 104.144ZM137.583 95.8229L138.267 96.485L137.583 95.8229ZM125.956 100.455L126.64 99.7929L126.64 99.7928L125.956 100.455ZM124.13 100.455L123.446 99.7928L123.446 99.7929L124.13 100.455ZM124.13 102.275L123.446 102.937H123.446L124.13 102.275ZM128.177 106.455L128.861 105.793H128.861L128.177 106.455ZM130.878 106.455L130.194 105.793H130.194L130.878 106.455ZM139.409 97.6429L140.093 98.305L139.409 97.6429ZM139.409 95.8229L140.093 95.1608L140.093 95.1608L139.409 95.8229ZM131.078 84.5609L131.754 85.2618L133.124 83.9398L132.447 83.2389L131.078 84.5609ZM131.771 85.2618L132.447 84.5609L131.078 83.2389L130.401 83.9398L131.771 85.2618ZM119.717 90.1183C125.613 90.1183 130.21 86.8791 131.771 85.2618L130.401 83.9398C129.096 85.2921 124.964 88.2145 119.717 88.2145V90.1183ZM118.838 90.1183H119.717V88.2145H118.838V90.1183ZM119.723 90.1255L119.787 89.2351L117.888 89.0977L117.824 89.988L119.723 90.1255ZM120.61 105.089C119.142 100.253 119.388 94.7481 119.723 90.1255L117.824 89.988C117.49 94.5943 117.206 100.429 118.788 105.642L120.61 105.089ZM131.768 116.025C125.26 114.086 122.079 109.927 120.61 105.089L118.788 105.642C120.418 111.011 124.028 115.705 131.224 117.85L131.768 116.025ZM132.034 116.105L131.768 116.025L131.224 117.85L131.491 117.929L132.034 116.105ZM131.757 116.025L131.491 116.105L132.034 117.929L132.301 117.85L131.757 116.025ZM142.915 105.089C141.446 109.927 138.265 114.086 131.757 116.025L132.301 117.85C139.497 115.705 143.107 111.011 144.737 105.642L142.915 105.089ZM143.802 90.1255C144.137 94.7481 144.383 100.253 142.915 105.089L144.737 105.642C146.319 100.429 146.035 94.5943 145.701 89.988L143.802 90.1255ZM143.738 89.2351L143.802 90.1255L145.701 89.988L145.637 89.0977L143.738 89.2351ZM143.808 90.1183H144.687V88.2145H143.808V90.1183ZM131.754 85.2618C133.315 86.8791 137.912 90.1183 143.808 90.1183V88.2145C138.561 88.2145 134.429 85.2921 133.124 83.9398L131.754 85.2618ZM130.211 104.806L138.267 96.485L136.9 95.1608L128.844 103.482L130.211 104.806ZM125.272 101.117L128.844 104.806L130.211 103.482L126.64 99.7929L125.272 101.117ZM124.814 101.117C124.942 100.985 125.145 100.985 125.272 101.117L126.64 99.7928C125.764 98.8885 124.322 98.8885 123.446 99.7928L124.814 101.117ZM124.814 101.613C124.682 101.477 124.682 101.253 124.814 101.117L123.446 99.7929C122.6 100.667 122.6 102.063 123.446 102.937L124.814 101.613ZM128.861 105.793L124.814 101.613L123.446 102.937L127.493 107.117L128.861 105.793ZM130.194 105.793C129.826 106.173 129.229 106.173 128.861 105.793L127.493 107.117C128.609 108.27 130.446 108.27 131.562 107.117L130.194 105.793ZM138.725 96.9809L130.194 105.793L131.562 107.117L140.093 98.305L138.725 96.9809ZM138.725 96.485C138.857 96.6211 138.857 96.8448 138.725 96.9809L140.093 98.305C140.939 97.4308 140.939 96.0351 140.093 95.1608L138.725 96.485ZM138.267 96.485C138.395 96.3534 138.598 96.3534 138.725 96.485L140.093 95.1608C139.217 94.2565 137.775 94.2565 136.9 95.1608L138.267 96.485Z" fill="white" mask="url(#path-10-outside-1_11997_316220)"/>
<path d="M137.586 95.823L129.53 104.144L125.958 100.455C125.456 99.9371 124.634 99.9371 124.132 100.455C123.643 100.96 123.643 101.77 124.132 102.275L128.179 106.455C128.921 107.221 130.138 107.221 130.88 106.455L139.411 97.6431C139.9 97.1379 139.9 96.3282 139.411 95.823C138.91 95.3051 138.087 95.3051 137.586 95.823Z" fill="white"/>
</svg>
