<svg fill="none" xmlns="http://www.w3.org/2000/svg" viewBox="0 0 1200 360" width="1200" height="360">
  <g clip-path="url(#clip0)">
    <path d="M0 4a4 4 0 014-4h1192a4 4 0 014 4v352a4 4 0 01-4 4H4a4 4 0 01-4-4V4z" fill="#F4F4F4"/>
    <path d="M878.4 73.92c-2.43-5-.35-11.02 4.65-13.45l74.03-36.06c5-2.44 11.02-.36 13.46 4.64l36.06 74.03c2.43 5 .35 11.02-4.64 13.46l-74.04 36.06c-5 2.43-11.02.35-13.45-4.64L878.4 73.92z" fill="#05F"/>
    <path fill-rule="evenodd" clip-rule="evenodd" d="M823.88 133.94a6.94 6.94 0 10-13.88 0 6.94 6.94 0 0013.88 0zm-10.4 0a3.47 3.47 0 116.93 0 3.47 3.47 0 01-6.94 0z" fill="#05F"/>
    <path d="M1107.92-94.61a24 24 0 0130.26-15.38l162.1 52.87a24 24 0 0115.37 30.26l-52.86 162.1a24 24 0 01-30.26 15.37l-162.1-52.86a24 24 0 01-15.37-30.26l52.86-162.1z" fill="#FF5975"/>
    <path fill-rule="evenodd" clip-rule="evenodd" d="M830.8 202.8V196h3.4v6.8h6.8v3.4h-6.8v6.8h-3.4v-6.8H824v-3.4h6.8z" fill="#FF5975"/>
    <path d="M810.5 300.95a24 24 0 0111.08-32.08l240.94-117.36a24 24 0 0132.08 11.07l117.36 240.94a24 24 0 01-11.07 32.08L959.95 552.96a24 24 0 01-32.09-11.07L810.51 300.95z" fill="#FFB700"/>
    <path fill-rule="evenodd" clip-rule="evenodd" d="M1156.2 173.2v6.8h-3.4v-6.8h-6.8v-3.4h6.8V163h3.4v6.8h6.8v3.4h-6.8z" fill="#FFB700"/>
  </g>
  <defs>
    <clipPath id="clip0">
      <path d="M0 4a4 4 0 014-4h1192a4 4 0 014 4v352a4 4 0 01-4 4H4a4 4 0 01-4-4V4z" fill="#fff"/>
    </clipPath>
  </defs>
</svg>
