<svg width="81" height="80" viewBox="0 0 81 80" fill="none" xmlns="http://www.w3.org/2000/svg">
<rect x="80" y="24" width="61.0415" height="61.0415" rx="7.22666" transform="rotate(112.85 80 24)" fill="#F4F4F4"/>
<rect x="5.5" y="20.5" width="65" height="41" fill="#F2F6FF" stroke="#73CDFF"/>
<path d="M7.12289 48.2449C12.7938 47.4033 25.8393 43.4547 32.6534 34.3927C38.6725 26.3879 26.8521 26.9694 19.9793 36.5357C15.6028 42.6273 16.1156 52.6221 36.0217 46.9481C55.9278 41.274 46.3448 36.1686 43.8278 40.6219C41.3107 45.0752 43.1743 52.4142 71.0486 42.2939" stroke="#0055FF" stroke-width="1.5" stroke-linecap="round"/>
<path fill-rule="evenodd" clip-rule="evenodd" d="M6 71V69H7V71H9V72H7V74H6V72H4L4 71H6Z" fill="#FFB700"/>
<path fill-rule="evenodd" clip-rule="evenodd" d="M77 10V8H78V10H80V11H78V13H77V11H75L75 10H77Z" fill="#0055FF"/>
<path fill-rule="evenodd" clip-rule="evenodd" d="M68 6C68 7.10457 67.1046 8 66 8C64.8954 8 64 7.10457 64 6C64 4.89543 64.8954 4 66 4C67.1046 4 68 4.89543 68 6ZM64.96 6C64.96 6.57438 65.4256 7.04 66 7.04C66.5744 7.04 67.04 6.57438 67.04 6C67.04 5.42562 66.5744 4.96 66 4.96C65.4256 4.96 64.96 5.42562 64.96 6Z" fill="#FFB700"/>
<circle cx="14" cy="19" r="14" fill="#FFB700"/>
<path fill-rule="evenodd" clip-rule="evenodd" d="M14 11.125C16.4162 11.125 18.375 13.0838 18.375 15.5C18.375 17.1467 17.4652 18.5809 16.1209 19.3275C18.8838 20.2042 20.9039 22.7506 20.9967 25.782L21 26V26.875H20.125V26L20.1214 25.7894C20.0105 22.5042 17.3123 19.875 14 19.875C10.6877 19.875 7.98954 22.5042 7.87855 25.7894L7.875 26V26.875H7V26L7.00333 25.782C7.09608 22.7506 9.11616 20.2042 11.8796 19.3269C10.5348 18.5809 9.625 17.1467 9.625 15.5C9.625 13.0838 11.5838 11.125 14 11.125ZM14 12C12.067 12 10.5 13.567 10.5 15.5C10.5 17.433 12.067 19 14 19C15.933 19 17.5 17.433 17.5 15.5C17.5 13.567 15.933 12 14 12Z" fill="white"/>
<path d="M70.1766 33.6819C69.576 32.9224 68.424 32.9224 67.8234 33.6819L66.6917 35.1131C66.5601 35.2795 66.3379 35.3447 66.1372 35.2759L64.4114 34.6837C63.4956 34.3695 62.5264 34.9923 62.4318 35.956L62.2535 37.7718C62.2328 37.9829 62.0811 38.158 61.8751 38.2085L60.1031 38.6434C59.1627 38.8742 58.6841 39.9222 59.1255 40.784L59.9573 42.4079C60.054 42.5967 60.021 42.826 59.875 42.9799L58.6195 44.3038C57.9532 45.0063 58.1171 46.1467 58.9544 46.6331L60.532 47.5495C60.7155 47.6561 60.8117 47.8668 60.7721 48.0752L60.4316 49.8677C60.2509 50.8189 61.0053 51.6896 61.9726 51.6462L63.7953 51.5642C64.0072 51.5547 64.2021 51.6799 64.2815 51.8766L64.9641 53.5687C65.3264 54.4666 66.4318 54.7912 67.222 54.2316L68.7111 53.1773C68.8842 53.0547 69.1158 53.0547 69.2889 53.1773L70.778 54.2316C71.5682 54.7912 72.6736 54.4666 73.0359 53.5687L73.7185 51.8766C73.7979 51.6799 73.9928 51.5547 74.2047 51.5642L76.0274 51.6462C76.9947 51.6896 77.7491 50.819 77.5684 49.8677L77.2279 48.0752C77.1883 47.8668 77.2845 47.6561 77.468 47.5495L79.0456 46.6331C79.8829 46.1467 80.0468 45.0063 79.3805 44.3038L78.125 42.9799C77.979 42.826 77.946 42.5967 78.0427 42.4079L78.8745 40.784C79.3159 39.9222 78.8373 38.8742 77.8969 38.6434L76.1249 38.2085C75.9189 38.158 75.7672 37.9829 75.7465 37.7718L75.5682 35.956C75.4736 34.9924 74.5044 34.3695 73.5886 34.6837L71.8628 35.2759C71.6621 35.3447 71.4399 35.2795 71.3083 35.1131L70.1766 33.6819Z" fill="#3D99F5" stroke="white"/>
<path d="M72.8889 40.5787L68.0538 46.2837L65.2215 43.7367L65.0793 43.6088L64.9542 43.7535L64.4582 44.3273L64.3404 44.4637L64.472 44.5868L67.9439 47.8368L68.0875 47.9712L68.2149 47.8214L73.7429 41.3214L73.8624 41.181L73.724 41.0592L73.1558 40.5592L73.0124 40.433L72.8889 40.5787Z" fill="white" stroke="white" stroke-width="0.375"/>
<rect x="67.5" y="18.5" width="5" height="5" fill="#FAFAFA" stroke="#73CDFF"/>
<rect x="3.5" y="58.5" width="5" height="5" fill="#FAFAFA" stroke="#73CDFF"/>
<rect x="67.5" y="58.5" width="5" height="5" fill="#FAFAFA" stroke="#73CDFF"/>
<path fill-rule="evenodd" clip-rule="evenodd" d="M24.8407 67.2194L29.4865 65.5683L17 58.7034L20.6403 72.4798L23.3663 68.3714L26.63 72.5488L28.1044 71.3969L24.8407 67.2194Z" fill="#0048D9"/>
<path d="M26.4829 67.6971L29.8214 66.5106L31.9197 65.7649L29.9683 64.692L17.4818 57.8271L15.4371 56.7029L16.0332 58.9588L19.6734 72.7353L20.2423 74.8882L21.4735 73.0327L23.4325 70.0803L25.842 73.1644L26.4577 73.9524L27.2457 73.3368L28.7201 72.1849L29.5081 71.5692L28.8924 70.7812L26.4829 67.6971Z" stroke="white" stroke-opacity="0.8" stroke-width="2"/>
</svg>
