<svg width="80" height="80" viewBox="0 0 80 80" fill="none" xmlns="http://www.w3.org/2000/svg">
<path d="M80 70.0508C80 73.6972 77.0633 76.6339 73.417 76.6339H6.58303C2.93666 76.6339 0 73.6972 0 70.0508V10.5831C0 6.93668 2.96113 4 6.58303 4H73.417C77.0633 4 80 6.96115 80 10.5831V70.0508Z" fill="#304371"/>
<path d="M30.0527 76.7562V64.5935C30.0527 59.6011 34.0906 55.5632 39.083 55.5632H64.9502C69.9426 55.5632 73.9806 59.6256 73.9806 64.5935V76.7562" fill="white"/>
<path d="M35.7544 41.2713C36.4151 39.0443 37.4674 37.2334 38.9113 35.7895C40.3551 34.3701 42.1906 33.3178 44.4665 32.6326C46.7424 31.9473 49.4343 31.6047 52.5913 31.6047C55.2343 31.6047 57.5347 31.9229 59.517 32.5592C61.4992 33.1954 63.2123 34.1988 64.7051 35.5693C66.4426 37.1844 67.6173 39.0688 68.2291 41.1979C68.8409 43.327 69.1591 46.0189 69.1591 49.2003V68.925C69.1591 70.6136 68.7675 71.8862 68.0088 72.7182C67.2257 73.5503 66.2224 73.9663 64.9743 73.9663C63.7262 73.9663 62.7229 73.5503 61.9887 72.7182C61.2545 71.8862 60.8629 70.6381 60.8629 68.925V48.6375C60.8629 45.1379 60.2022 42.5194 58.8562 40.8063C57.5102 39.0933 55.2343 38.2123 51.9795 38.2123C49.6301 38.2123 47.8192 38.6283 46.4977 39.4848C45.2007 40.3414 44.2952 41.516 43.7812 43.0578C43.2673 44.5995 43.0226 46.5084 43.0226 48.7843V68.925C43.0226 70.5891 42.6555 71.8617 41.8969 72.6938C41.1382 73.5258 40.1349 73.9419 38.8378 73.9419C37.6142 73.9419 36.6109 73.5258 35.8767 72.6938C35.1181 71.8617 34.751 70.5891 34.751 68.925V49.2493C34.751 46.1413 35.0936 43.4983 35.7544 41.2713Z" fill="white"/>
<path d="M50.1684 6.47168L52.1261 11.978L58.3911 11.9535L53.3008 15.3551L55.2586 20.8369L50.1684 17.4353L45.127 20.8369L47.0604 15.3551L41.9946 11.9535L48.2595 11.978L50.1684 6.47168Z" fill="#EDCC4D"/>
<path d="M69.6729 10.0692L71.6062 15.5755L77.8711 15.551L72.8053 18.9282L74.7386 24.41L69.6729 21.0083L64.6071 24.41L66.5649 18.9282L61.4502 15.551L67.764 15.5755L69.6729 10.0692Z" fill="#EDCC4D"/>
<path d="M13.7295 60.5065L15.6628 66.0128L21.9277 65.9883L16.8375 69.3655L18.7952 74.8473L13.7295 71.4457L8.66366 74.8473L10.6214 69.3655L5.53125 65.9883L11.7961 66.0128L13.7295 60.5065Z" fill="#EDCC4D"/>
<path d="M18.3052 25.0217L20.2385 30.5279L26.5034 30.5035L21.4376 33.8806L23.3709 39.3624L18.3052 35.9608L13.2394 39.3624L15.1727 33.8806L10.1069 30.5035L16.3963 30.5279L18.3052 25.0217Z" fill="#EDCC4D"/>
<path d="M32.1314 11.9045L34.0403 17.4108L40.3296 17.3863L35.2394 20.7635L37.1972 26.2453L32.1314 22.8437L27.0657 26.2453L28.9989 20.7635L23.9087 17.3863L30.1981 17.4108L32.1314 11.9045Z" fill="#EDCC4D"/>
<path d="M11.8931 43.3271L13.8263 48.8334L20.1157 48.8089L15.0255 52.1861L16.9588 57.6679L11.8931 54.2662L6.82723 57.6679L8.78502 52.1861L3.69482 48.8089L9.9597 48.8334L11.8931 43.3271Z" fill="#EDCC4D"/>
</svg>
