<svg width="80" height="80" viewBox="0 0 80 80" fill="none" xmlns="http://www.w3.org/2000/svg">
<rect x="-1.05176" y="25.4467" width="61.3481" height="61.3481" rx="9.58156" transform="rotate(-27.6313 -1.05176 25.4467)" fill="#FAFAFA"/>
<path fill-rule="evenodd" clip-rule="evenodd" d="M7 7V5H8V7H10V8H8V10H7V8H5V7H7Z" fill="#FFB700"/>
<path fill-rule="evenodd" clip-rule="evenodd" d="M71 72V70H72V72H74V73H72V75H71V73H69V72H71Z" fill="#FFB700"/>
<path d="M12 20.9771H66.4186C69.5011 20.9771 72 23.4759 72 26.5584V57.2561C72 60.3386 69.5011 62.8375 66.4186 62.8375H17.5814C14.4989 62.8375 12 60.3386 12 57.2561V20.9771Z" fill="#E5EEFF"/>
<path d="M12 16.7907C12 15.2494 13.2494 14 14.7907 14H39.907C41.4482 14 42.6977 15.2494 42.6977 16.7907V20.9767H12V16.7907Z" fill="#B3CCFF"/>
<path fill-rule="evenodd" clip-rule="evenodd" d="M20 74C28.8366 74 36 66.8366 36 58C36 49.1634 28.8366 42 20 42C11.1634 42 4 49.1634 4 58C4 66.8366 11.1634 74 20 74Z" fill="#0055FF"/>
<path fill-rule="evenodd" clip-rule="evenodd" d="M25.0898 54.6363H14.908H12.3619V63.5454H27.6346V54.6363H25.0898ZM19.9989 48.2727C22.7424 48.2727 24.979 50.5332 25.0858 53.3636H28.908V64.8182H11.0898V53.3636H14.912C15.0189 50.5332 17.2555 48.2727 19.9989 48.2727ZM16.1799 53.3635H23.8162C23.8162 51.2548 22.1068 49.5453 19.998 49.5453C17.8893 49.5453 16.1799 51.2548 16.1799 53.3635ZM18.7262 58.4545C18.7262 57.7516 19.296 57.1818 19.9989 57.1818C20.7018 57.1818 21.2717 57.7516 21.2717 58.4545V61C21.2717 61.7029 20.7018 62.2727 19.9989 62.2727C19.296 62.2727 18.7262 61.7029 18.7262 61V58.4545Z" fill="white"/>
<path fill-rule="evenodd" clip-rule="evenodd" d="M60.4458 52.4464H66.1689V58.1696H60.4458V52.4464Z" fill="#FF46FB"/>
<path fill-rule="evenodd" clip-rule="evenodd" d="M54.7236 52.4464H60.4468V58.1696H54.7236V52.4464Z" fill="#CA41FC"/>
<path fill-rule="evenodd" clip-rule="evenodd" d="M49 52.4464H54.7231V58.1696H49V52.4464Z" fill="#8B48FE"/>
<path fill-rule="evenodd" clip-rule="evenodd" d="M66.1689 46.723V52.4462H60.4458V46.723H66.1689Z" fill="#81E650"/>
<path fill-rule="evenodd" clip-rule="evenodd" d="M60.4468 46.723V52.4462H54.7236V46.723H60.4468Z" fill="#00D267"/>
<path fill-rule="evenodd" clip-rule="evenodd" d="M54.7231 46.723V52.4462H49V46.723H54.7231Z" fill="#00C0FF"/>
<path fill-rule="evenodd" clip-rule="evenodd" d="M60.4458 41H66.1689V46.7231H60.4458V41Z" fill="#FFD200"/>
<path fill-rule="evenodd" clip-rule="evenodd" d="M54.7236 41H60.4468V46.7231H54.7236V41Z" fill="#FF8E00"/>
<path fill-rule="evenodd" clip-rule="evenodd" d="M49 41H54.7231V46.7231H49V41Z" fill="#FF5400"/>
</svg>
