<svg width="80" height="80" viewBox="0 0 80 80" fill="none" xmlns="http://www.w3.org/2000/svg">
<path d="M80 40C80 62.0916 62.0916 80 40 80C17.9084 80 0 62.0916 0 40C0 17.9084 17.9084 0 40 0C62.0916 0 80 17.9084 80 40Z" fill="#0F3582"/>
<path d="M65 40C65 53.8073 53.8073 65 40 65C26.1927 65 15 53.8073 15 40C15 26.1927 26.1927 15 40 15C53.8073 15 65 26.1927 65 40Z" fill="#003CB2"/>
<path d="M23 43.3148C23 44.3635 23.8019 45.1654 24.8506 45.1654H28.5519C29.6006 45.1654 30.4025 44.3635 30.4025 43.3148V40.5389C30.4025 40.0454 29.9707 39.6136 29.4772 39.6136H27.6266C27.1331 39.6136 26.7012 40.0454 26.7012 40.5389C26.7012 41.0324 27.1331 41.4642 27.6266 41.4642H28.5519V43.3148H24.8506V35.9123H28.5519C28.5519 36.4058 28.9837 36.8376 29.4772 36.8376C29.9707 36.8376 30.4025 36.4058 30.4025 35.9123C30.4025 34.8636 29.6006 34.0617 28.5519 34.0617H24.8506C23.8019 34.0617 23 34.8636 23 35.9123V43.3148Z" fill="white"/>
<path d="M31.3276 44.2401C31.3276 44.7336 31.7594 45.1654 32.2529 45.1654H35.0289C37.0646 45.1654 38.7301 43.4999 38.7301 41.4642V37.763C38.7301 35.7273 37.0646 34.0617 35.0289 34.0617H32.2529C31.7594 34.0617 31.3276 34.4935 31.3276 34.987V44.2401ZM33.1783 35.8506H35.0289C36.0776 35.8506 36.8795 36.6526 36.8795 37.7013V41.4025C36.8795 42.4512 36.0776 43.2531 35.0289 43.2531H33.1783V35.8506Z" fill="white"/>
<path d="M40.6426 34.9254V44.2402C40.6426 44.7337 41.0744 45.1655 41.5679 45.1655C42.0614 45.1655 42.4932 44.7337 42.4932 44.2402V41.4642H45.2691C46.8113 41.4642 48.0451 40.2305 48.0451 38.6883V36.8377C48.0451 35.2955 46.8113 34.0617 45.2691 34.0617H41.5679C41.0127 34.0001 40.6426 34.4319 40.6426 34.9254ZM42.4932 35.8507H45.2691C45.7626 35.8507 46.1944 36.2825 46.1944 36.776V38.6266C46.1944 39.1201 45.7626 39.5519 45.2691 39.5519H42.4932V35.8507Z" fill="white"/>
<path d="M49.8955 34C49.402 34 48.9702 34.4318 48.9702 34.9253V44.2401C48.9702 44.7336 49.402 45.1654 49.8955 45.1654C50.389 45.1654 50.8208 44.7336 50.8208 44.2401V41.4642H53.5968C54.0903 41.4642 54.5221 41.896 54.5221 42.3895V44.2401C54.5221 44.7336 54.9539 45.1654 55.4474 45.1654C55.9409 45.1654 56.4344 44.7336 56.4344 44.2401V42.3895C56.4344 41.7109 56.1876 41.0324 55.6941 40.5389C56.1876 40.0454 56.4344 39.3668 56.4344 38.6882V36.8376C56.4344 35.2954 55.2006 34.0617 53.6585 34.0617H49.8955V34ZM54.5838 36.7759V38.6266C54.5838 39.1201 54.152 39.5519 53.6585 39.5519H50.8825V35.8506H53.6585C54.152 35.8506 54.5838 36.2824 54.5838 36.7759Z" fill="white"/>
<path d="M55.0014 7.2305C55.0586 7.05449 55.3076 7.05452 55.3648 7.23054L56.2681 10.0115C56.2936 10.0902 56.367 10.1435 56.4498 10.1435H59.3733C59.5584 10.1435 59.6353 10.3804 59.4855 10.4892L57.1199 12.207C57.0529 12.2557 57.0249 12.342 57.0505 12.4207L57.9544 15.2007C58.0116 15.3767 57.8102 15.5231 57.6604 15.4144L55.2954 13.6964C55.2285 13.6478 55.1378 13.6478 55.0709 13.6964L52.7057 15.4145C52.556 15.5233 52.3545 15.3769 52.4117 15.2009L53.315 12.4207C53.3406 12.3419 53.3125 12.2557 53.2456 12.2071L50.8806 10.4892C50.7308 10.3804 50.8078 10.1435 50.9929 10.1435H53.9157C53.9985 10.1435 54.0718 10.0902 54.0974 10.0115L55.0014 7.2305Z" fill="#FFC63C"/>
<path d="M66.4477 17.3968C66.5049 17.2208 66.7539 17.2208 66.8111 17.3968L67.7144 20.1771C67.7399 20.2558 67.8133 20.3091 67.8961 20.3091H70.8199C71.005 20.3091 71.0819 20.5459 70.9322 20.6547L68.567 22.3735C68.5 22.4221 68.472 22.5084 68.4976 22.5871L69.4009 25.3673C69.4581 25.5433 69.2566 25.6897 69.1069 25.5809L66.7417 23.8629C66.6748 23.8143 66.5841 23.8143 66.5172 23.8629L64.152 25.5809C64.0022 25.6897 63.8008 25.5433 63.858 25.3673L64.7613 22.5871C64.7869 22.5084 64.7588 22.4221 64.6919 22.3735L62.3267 20.6547C62.177 20.5459 62.2539 20.3091 62.439 20.3091H65.362C65.4448 20.3091 65.5181 20.2558 65.5437 20.1771L66.4477 17.3968Z" fill="#FFC63C"/>
<path d="M72.0403 31.9488C72.0974 31.7728 72.3464 31.7727 72.4037 31.9487L73.3076 34.7291C73.3332 34.8078 73.4066 34.8611 73.4893 34.8611H76.4124C76.5974 34.8611 76.6744 35.0979 76.5247 35.2067L74.1595 36.9255C74.0925 36.9741 74.0645 37.0604 74.0901 37.1391L74.994 39.9191C75.0512 40.0952 74.8497 40.2416 74.7 40.1328L72.3342 38.4141C72.2672 38.3654 72.1766 38.3655 72.1096 38.4141L69.7447 40.1327C69.5949 40.2415 69.3934 40.0951 69.4507 39.919L70.3545 37.1391C70.3801 37.0604 70.3521 36.9741 70.2851 36.9255L67.9199 35.2067C67.7702 35.0979 67.8472 34.8611 68.0322 34.8611H70.9553C71.038 34.8611 71.1114 34.8078 71.137 34.7291L72.0403 31.9488Z" fill="#FFC63C"/>
<path d="M70.0981 47.8376C70.1553 47.6615 70.4043 47.6616 70.4615 47.8376L71.3648 50.6186C71.3904 50.6973 71.4637 50.7506 71.5465 50.7506H74.4693C74.6544 50.7506 74.7314 50.9875 74.5816 51.0962L72.2166 52.8141C72.1497 52.8628 72.1216 52.949 72.1472 53.0278L73.0511 55.8086C73.1084 55.9846 72.9069 56.131 72.7571 56.0222L70.3922 54.3036C70.3252 54.2549 70.2345 54.2549 70.1676 54.3036L67.8017 56.0223C67.652 56.1311 67.4505 55.9847 67.5077 55.8087L68.4117 53.0278C68.4373 52.949 68.4092 52.8628 68.3422 52.8141L65.9773 51.0962C65.8275 50.9875 65.9045 50.7506 66.0896 50.7506H69.0124C69.0952 50.7506 69.1685 50.6973 69.1941 50.6186L70.0981 47.8376Z" fill="#FFC63C"/>
<path d="M61.334 60.4415C61.3912 60.2655 61.6402 60.2656 61.6973 60.4416L62.6006 63.2219C62.6262 63.3006 62.6996 63.3539 62.7823 63.3539H65.7054C65.8904 63.3539 65.9674 63.5907 65.8177 63.6995L63.4525 65.4183C63.3855 65.4669 63.3575 65.5532 63.3831 65.6319L64.2869 68.4118C64.3442 68.5878 64.1427 68.7343 63.9929 68.6254L61.628 66.9069C61.561 66.8582 61.4704 66.8582 61.4034 66.9069L59.0376 68.6256C58.8878 68.7344 58.6864 68.588 58.7436 68.4119L59.6475 65.6319C59.6731 65.5532 59.6451 65.4669 59.5781 65.4183L57.2129 63.6995C57.0632 63.5907 57.1401 63.3539 57.3252 63.3539H60.2483C60.331 63.3539 60.4044 63.3006 60.43 63.2219L61.334 60.4415Z" fill="#FFC63C"/>
<path d="M47.6953 67.6809C47.7525 67.5049 48.0015 67.5049 48.0587 67.681L48.962 70.4613C48.9875 70.54 49.0609 70.5933 49.1437 70.5933H52.0667C52.2518 70.5933 52.3287 70.8301 52.179 70.9389L49.8138 72.6576C49.7468 72.7063 49.7188 72.7926 49.7444 72.8713L50.6483 75.6514C50.7055 75.8274 50.5041 75.9738 50.3543 75.865L47.9893 74.1471C47.9224 74.0984 47.8317 74.0984 47.7648 74.147L45.3988 75.8652C45.2491 75.9739 45.0477 75.8275 45.1049 75.6515L46.0088 72.8713C46.0344 72.7926 46.0064 72.7063 45.9394 72.6576L43.5742 70.9389C43.4245 70.8301 43.5015 70.5933 43.6865 70.5933H46.6096C46.6923 70.5933 46.7657 70.54 46.7913 70.4613L47.6953 67.6809Z" fill="#FFC63C"/>
<path d="M31.6233 67.681C31.6805 67.5049 31.9294 67.5049 31.9867 67.6809L32.8907 70.4613C32.9162 70.54 32.9896 70.5933 33.0723 70.5933H35.9954C36.1805 70.5933 36.2574 70.8301 36.1077 70.9389L33.7425 72.6576C33.6755 72.7063 33.6475 72.7926 33.6731 72.8713L34.5771 75.6515C34.6343 75.8275 34.4329 75.9739 34.2831 75.8652L31.9172 74.147C31.8502 74.0984 31.7596 74.0984 31.6926 74.1471L29.3276 75.865C29.1779 75.9738 28.9764 75.8274 29.0336 75.6514L29.9375 72.8713C29.9631 72.7926 29.9351 72.7063 29.8682 72.6576L27.5029 70.9389C27.3532 70.8301 27.4302 70.5933 27.6153 70.5933H30.5383C30.621 70.5933 30.6944 70.54 30.72 70.4613L31.6233 67.681Z" fill="#FFC63C"/>
<path d="M17.9841 60.4416C18.0413 60.2656 18.2903 60.2655 18.3475 60.4415L19.2515 63.2219C19.2771 63.3006 19.3504 63.3539 19.4332 63.3539H22.3562C22.5413 63.3539 22.6182 63.5907 22.4685 63.6995L20.1033 65.4183C20.0364 65.4669 20.0084 65.5532 20.0339 65.6319L20.9378 68.4119C20.9951 68.588 20.7936 68.7344 20.6438 68.6256L18.278 66.9069C18.2111 66.8582 18.1204 66.8582 18.0534 66.9069L15.6885 68.6254C15.5388 68.7343 15.3373 68.5879 15.3945 68.4118L16.2984 65.6319C16.324 65.5532 16.296 65.4669 16.229 65.4183L13.8638 63.6995C13.7141 63.5907 13.791 63.3539 13.9761 63.3539H16.8991C16.9819 63.3539 17.0552 63.3006 17.0808 63.2219L17.9841 60.4416Z" fill="#FFC63C"/>
<path d="M9.21994 47.8376C9.27712 47.6616 9.52613 47.6615 9.58335 47.8376L10.4873 50.6186C10.5129 50.6973 10.5863 50.7506 10.669 50.7506H13.5919C13.777 50.7506 13.8539 50.9875 13.7042 51.0962L11.3392 52.8141C11.2722 52.8628 11.2442 52.949 11.2698 53.0278L12.1737 55.8087C12.231 55.9847 12.0295 56.1311 11.8798 56.0223L9.51389 54.3036C9.44693 54.2549 9.35625 54.2549 9.28929 54.3036L6.92432 56.0222C6.77458 56.131 6.57309 55.9846 6.63031 55.8086L7.53422 53.0278C7.55981 52.949 7.53178 52.8628 7.46481 52.8141L5.09984 51.0962C4.95009 50.9875 5.02703 50.7506 5.21212 50.7506H8.13494C8.21771 50.7506 8.29107 50.6973 8.31664 50.6186L9.21994 47.8376Z" fill="#FFC63C"/>
<path d="M7.27828 31.9487C7.3355 31.7727 7.58449 31.7728 7.64167 31.9488L8.54497 34.7291C8.57055 34.8078 8.64391 34.8611 8.72668 34.8611H11.6497C11.8348 34.8611 11.9117 35.0979 11.762 35.2067L9.39679 36.9255C9.32983 36.9741 9.30182 37.0604 9.32741 37.1391L10.2313 39.919C10.2885 40.0951 10.087 40.2415 9.93725 40.1326L7.57233 38.4141C7.50537 38.3654 7.4147 38.3654 7.34773 38.4141L4.98193 40.1328C4.83218 40.2416 4.63071 40.0952 4.68794 39.9191L5.59183 37.1391C5.61742 37.0604 5.58941 36.9741 5.52245 36.9255L3.15724 35.2067C3.00753 35.0979 3.08448 34.8611 3.26955 34.8611H6.1926C6.27535 34.8611 6.3487 34.8078 6.37429 34.7291L7.27828 31.9487Z" fill="#FFC63C"/>
<path d="M12.8706 17.3968C12.9278 17.2208 13.1768 17.2208 13.234 17.3968L14.138 20.1772C14.1636 20.2559 14.237 20.3091 14.3197 20.3091H17.2427C17.4278 20.3091 17.5048 20.5459 17.355 20.6547L14.9898 22.3735C14.9229 22.4221 14.8949 22.5084 14.9204 22.5871L15.8237 25.3673C15.8809 25.5433 15.6795 25.6897 15.5297 25.5809L13.1646 23.8629C13.0976 23.8143 13.007 23.8143 12.94 23.8629L10.5748 25.5809C10.4251 25.6897 10.2237 25.5433 10.2808 25.3673L11.1841 22.5871C11.2097 22.5084 11.1817 22.4221 11.1147 22.3735L8.74952 20.6547C8.59981 20.5459 8.67677 20.3091 8.86183 20.3091H11.7857C11.8684 20.3091 11.9418 20.2558 11.9674 20.1771L12.8706 17.3968Z" fill="#FFC63C"/>
<path d="M24.3164 7.23054C24.3736 7.05452 24.6226 7.05449 24.6798 7.2305L25.5838 10.0115C25.6094 10.0902 25.6828 10.1435 25.7655 10.1435H28.6883C28.8734 10.1435 28.9504 10.3804 28.8006 10.4892L26.4357 12.2071C26.3687 12.2557 26.3407 12.3419 26.3662 12.4207L27.2695 15.2009C27.3267 15.3769 27.1253 15.5233 26.9755 15.4145L24.6104 13.6964C24.5434 13.6478 24.4528 13.6478 24.3858 13.6964L22.0208 15.4144C21.8711 15.5231 21.6696 15.3767 21.7268 15.2007L22.6307 12.4207C22.6563 12.342 22.6283 12.2557 22.5613 12.207L20.1957 10.4892C20.0459 10.3804 20.1229 10.1435 20.308 10.1435H23.2314C23.3142 10.1435 23.3876 10.0902 23.4132 10.0115L24.3164 7.23054Z" fill="#FFC63C"/>
<path d="M39.5835 3.25514C39.6407 3.07911 39.8897 3.07909 39.9469 3.2551L40.8509 6.03613C40.8765 6.11484 40.9499 6.16812 41.0326 6.16812H43.9554C44.1405 6.16812 44.2175 6.40497 44.0677 6.51375L41.7028 8.23165C41.6358 8.28029 41.6078 8.36653 41.6333 8.44526L42.5366 11.2255C42.5938 11.4015 42.3924 11.5479 42.2426 11.4391L39.8775 9.72105C39.8105 9.67241 39.7198 9.67241 39.6529 9.72105L37.2879 11.439C37.1382 11.5477 36.9367 11.4013 36.9939 11.2253L37.8978 8.4453C37.9234 8.36656 37.8954 8.28029 37.8284 8.23163L35.4628 6.51377C35.313 6.405 35.3899 6.16812 35.575 6.16812H38.4985C38.5813 6.16812 38.6547 6.11482 38.6802 6.03609L39.5835 3.25514Z" fill="#FFC63C"/>
</svg>
