<svg width="81" height="81" viewBox="0 0 81 81" fill="none" xmlns="http://www.w3.org/2000/svg">
<rect x="0.53125" y="23.9619" width="61.3481" height="61.3481" rx="8" transform="rotate(-22.8827 0.53125 23.9619)" fill="#F4F4F4"/>
<path fill-rule="evenodd" clip-rule="evenodd" d="M76 13V11H77V13H79V14H77V16H76V14H74V13H76Z" fill="#0055FF"/>
<path fill-rule="evenodd" clip-rule="evenodd" d="M68 3.5C68 4.88071 66.8807 6 65.5 6C64.1193 6 63 4.88071 63 3.5C63 2.11929 64.1193 1 65.5 1C66.8807 1 68 2.11929 68 3.5ZM64.2 3.5C64.2 4.21797 64.782 4.8 65.5 4.8C66.218 4.8 66.8 4.21797 66.8 3.5C66.8 2.78203 66.218 2.2 65.5 2.2C64.782 2.2 64.2 2.78203 64.2 3.5Z" fill="#FFB700"/>
<path fill-rule="evenodd" clip-rule="evenodd" d="M10 61.5C10 62.8807 8.88071 64 7.5 64C6.11929 64 5 62.8807 5 61.5C5 60.1193 6.11929 59 7.5 59C8.88071 59 10 60.1193 10 61.5ZM6.2 61.5C6.2 62.218 6.78203 62.8 7.5 62.8C8.21797 62.8 8.8 62.218 8.8 61.5C8.8 60.782 8.21797 60.2 7.5 60.2C6.78203 60.2 6.2 60.782 6.2 61.5Z" fill="#0055FF"/>
<path d="M51.7269 11.7703C52.0352 11.7703 52.3301 11.8969 52.5435 12.1209L63.9312 24.0756C64.1332 24.2876 64.2459 24.5699 64.2459 24.8635L64.2459 68.4904C64.2459 70.0348 63.0684 71.2983 61.6293 71.2983L21.0717 71.2983C19.6326 71.2983 18.4551 70.0348 18.4551 68.4904L18.4551 14.5783C18.4551 13.034 19.6326 11.7704 21.0717 11.7704L51.7269 11.7703Z" fill="white"/>
<path d="M44.0573 46.4283C44.8875 45.7396 45.3592 44.7598 45.3548 43.7333C45.3548 41.7083 43.5645 40.0667 41.3562 40.0667C39.1478 40.0667 37.3575 41.7083 37.3575 43.7333C37.3532 44.7598 37.8249 45.7396 38.655 46.4283L37.4075 49.8603C37.233 50.3406 37.5162 50.8596 38.04 51.0196C38.1422 51.0508 38.2493 51.0667 38.3571 51.0666H44.355C44.9071 51.0673 45.3553 50.6574 45.356 50.1512C45.3561 50.0523 45.3388 49.9541 45.3047 49.8604L44.0573 46.4283Z" fill="#A3A3A3"/>
<path fill-rule="evenodd" clip-rule="evenodd" d="M51.8643 12.2146L63.4735 24.268V68.2549C63.4735 69.2485 62.7209 69.9381 61.9592 69.9381L20.6132 69.9381C19.8516 69.9381 19.099 69.2485 19.099 68.2549L19.099 13.8979C19.099 12.9043 19.8516 12.2147 20.6132 12.2147L51.8643 12.2146ZM52.6968 11.4202C52.4793 11.1943 52.1786 11.0667 51.8643 11.0667L20.6132 11.0668C19.1462 11.0668 17.9458 12.3408 17.9458 13.8979L17.9458 68.2549C17.9458 69.812 19.1462 71.086 20.6132 71.086H61.9592C63.4263 71.086 64.6267 69.812 64.6267 68.2549V24.268C64.6267 23.9719 64.5118 23.6873 64.3059 23.4736L52.6968 11.4202Z" fill="#DDDDDD"/>
<path d="M64.6275 24.4043L51.2901 11.0667V24.4043L64.6275 24.4043Z" fill="#DDDDDD"/>
<path d="M32.8934 69.9947L32.8951 70.0372L56.6943 46.1284C55.3875 44.0139 54.8607 41.5001 55.2144 39.0284C55.5876 36.4201 56.9146 34.0452 58.937 32.3679C60.9595 30.6905 63.5321 29.8315 66.1522 29.9593C68.7722 30.087 71.2506 31.1923 73.1034 33.0584C74.9562 34.9244 76.0505 37.4171 76.1731 40.0494C76.2958 42.6818 75.4382 45.2656 73.767 47.2961C72.0958 49.3267 69.731 50.6581 67.1342 51.0294C64.6752 51.381 62.1762 50.8476 60.0755 49.5318L45.9337 63.7391L50.7989 68.635L50.7989 68.635C51.2545 69.0936 51.5099 69.7147 51.5097 70.3616C51.5095 71.0086 51.2538 71.6294 50.7978 72.0875C50.3417 72.5456 49.7227 72.8032 49.0768 72.8027C48.4309 72.8023 47.8122 72.5438 47.3565 72.0852L44.295 69.0042L42.268 71.0408L45.3334 74.1257L44.9875 74.4695L45.3334 74.1257C45.789 74.5842 46.0444 75.2053 46.0442 75.8523C46.0441 76.4992 45.7883 77.1201 45.3324 77.5781C44.8763 78.0363 44.2573 78.2938 43.6114 78.2934C42.9655 78.2929 42.3468 78.0345 41.8911 77.5759L37.0298 72.6838L35.4727 74.2483L35.4728 74.2484L35.4636 74.2572C35.011 74.6894 34.4077 74.9271 33.7824 74.9187C33.157 74.9103 32.5602 74.6566 32.119 74.2126C31.6778 73.7687 31.427 73.1696 31.4192 72.5433C31.4114 71.9169 31.6473 71.3119 32.0774 70.8573L32.8934 69.9947ZM69.4672 44.3945C70.2245 43.6337 70.7407 42.6638 70.9501 41.6071C71.1594 40.5505 71.0524 39.455 70.6426 38.4593C70.2328 37.4637 69.5388 36.6129 68.6488 36.0142C67.7589 35.4156 66.7128 35.0959 65.6429 35.0952C64.5729 35.0944 63.5268 35.4127 62.6366 36.0101C61.7464 36.6075 61.0521 37.4572 60.6419 38.4522C60.2317 39.4472 60.1241 40.5426 60.333 41.5995C60.5418 42.6565 61.0576 43.6273 61.8147 44.3892C62.8298 45.4107 64.2061 45.9846 65.6407 45.9856C67.0753 45.9866 68.4517 45.4145 69.4672 44.3945Z" fill="#FF8000" stroke="white"/>
<circle cx="65.5267" cy="40.6127" r="5.80645" transform="rotate(-2.25694 65.5267 40.6127)" fill="white"/>
</svg>
