<svg width="80" height="80" viewBox="0 0 80 80" fill="none" xmlns="http://www.w3.org/2000/svg">
<path d="M41.5829 2.67478L40 1L38.4171 2.67478C35.0641 6.22258 24.85 13.5838 11.8123 13.5838H9.75361L9.60281 15.7112C8.82127 26.737 8.20054 40.2845 11.77 52.2896C15.3958 64.4843 23.3417 72.9296 39.3756 77.8099L40 78L40.6244 77.8099C56.6583 72.9296 64.6042 64.4843 68.23 52.2896C71.7995 40.2845 71.1787 26.737 70.3972 15.7112L70.2464 13.5838H68.1877C55.15 13.5838 44.9359 6.22258 41.5829 2.67478Z" stroke="#F4F4F4"/>
<path fill-rule="evenodd" clip-rule="evenodd" d="M41.3276 9.35455L40 8L38.6724 9.35455C35.8602 12.224 27.2935 18.1777 16.3587 18.1777H14.6321L14.5056 19.8983C13.8501 28.8158 13.3295 39.7729 16.3232 49.4826C19.3642 59.3455 26.0285 67.8991 39.4763 71.8463L40 72L40.5237 71.8463C53.9715 67.8991 60.6358 59.3455 63.6768 49.4826C66.6705 39.7729 66.1499 28.8158 65.4944 19.8983L65.3679 18.1777H63.6413C52.7065 18.1777 44.1398 12.224 41.3276 9.35455Z" fill="#B3CCFF"/>
<path d="M40.5 71.332V9.2245L40.9705 9.70453C43.8508 12.6434 52.539 18.6777 63.6413 18.6777H64.9033L64.9958 19.935C65.6516 28.8568 66.1617 39.7262 63.199 49.3352C60.2106 59.0276 53.6906 67.4222 40.5 71.332Z" fill="#CCDDFF" stroke="#CCDDFF"/>
<mask id="path-4-outside-1_12356_54935" maskUnits="userSpaceOnUse" x="29" y="22.5" width="22" height="32" fill="black">
<rect fill="white" x="29" y="22.5" width="22" height="32"/>
<path fill-rule="evenodd" clip-rule="evenodd" d="M31.25 32.25C31.2555 27.4198 35.1697 23.5055 40 23.5C44.8302 23.5055 48.7445 27.4198 48.75 32.25V37.3567C49.4783 37.6141 50 38.3086 50 39.125V50.375C50 52.1009 48.6009 53.5 46.875 53.5H33.125C31.3991 53.5 30 52.1009 30 50.375V39.125C30 38.3086 30.5218 37.6141 31.25 37.3567V32.25ZM35 37.25H45V32.25C45 29.4886 42.7614 27.25 40 27.25C37.2386 27.25 35 29.4886 35 32.25V37.25Z"/>
</mask>
<path d="M40 23.5L40.0008 22.75L39.9991 22.75L40 23.5ZM31.25 32.25L30.5 32.2491V32.25H31.25ZM48.75 32.25H49.5V32.2491L48.75 32.25ZM48.75 37.3567H48V37.8871L48.5001 38.0638L48.75 37.3567ZM50 39.125L49.25 39.125V39.125H50ZM31.25 37.3567L31.4999 38.0638L32 37.8871V37.3567H31.25ZM45 37.25V38H45.75V37.25H45ZM35 37.25H34.25V38H35V37.25ZM39.9991 22.75C34.7553 22.756 30.506 27.0054 30.5 32.2491L32 32.2508C32.005 27.8342 35.5842 24.255 40.0008 24.25L39.9991 22.75ZM49.5 32.2491C49.494 27.0054 45.2446 22.756 40.0008 22.75L39.9991 24.25C44.4158 24.255 47.9949 27.8342 48 32.2508L49.5 32.2491ZM49.5 37.3567V32.25H48V37.3567H49.5ZM50.75 39.125C50.75 37.9809 50.0185 37.0096 49 36.6496L48.5001 38.0638C48.938 38.2186 49.25 38.6363 49.25 39.125L50.75 39.125ZM50.75 50.375V39.125H49.25V50.375H50.75ZM46.875 54.25C49.0151 54.25 50.75 52.5151 50.75 50.375H49.25C49.25 51.6867 48.1867 52.75 46.875 52.75V54.25ZM33.125 54.25H46.875V52.75H33.125V54.25ZM29.25 50.375C29.25 52.5151 30.9849 54.25 33.125 54.25V52.75C31.8133 52.75 30.75 51.6867 30.75 50.375H29.25ZM29.25 39.125V50.375H30.75V39.125H29.25ZM31.0001 36.6496C29.9815 37.0096 29.25 37.9809 29.25 39.125H30.75C30.75 38.6363 31.062 38.2186 31.4999 38.0638L31.0001 36.6496ZM30.5 32.25V37.3567H32V32.25H30.5ZM45 36.5H35V38H45V36.5ZM44.25 32.25V37.25H45.75V32.25H44.25ZM40 28C42.3472 28 44.25 29.9028 44.25 32.25H45.75C45.75 29.0744 43.1756 26.5 40 26.5V28ZM35.75 32.25C35.75 29.9028 37.6528 28 40 28V26.5C36.8244 26.5 34.25 29.0744 34.25 32.25H35.75ZM35.75 37.25V32.25H34.25V37.25H35.75Z" fill="#E5EEFF" mask="url(#path-4-outside-1_12356_54935)"/>
<path opacity="0.5" d="M40 23.5C35.1697 23.5055 31.2555 27.4198 31.25 32.25V37.875C31.25 38.2202 31.5298 38.5 31.875 38.5H34.375C34.7202 38.5 35 38.2202 35 37.875V32.25C35 29.4886 37.2386 27.25 40 27.25C42.7614 27.25 45 29.4886 45 32.25V37.875C45 38.2202 45.2798 38.5 45.625 38.5H48.125C48.4702 38.5 48.75 38.2202 48.75 37.875V32.25C48.7445 27.4198 44.8302 23.5055 40 23.5Z" fill="#0055FF"/>
<path d="M48.125 37.25H31.875C30.8395 37.25 30 38.0895 30 39.125V50.375C30 52.1009 31.3991 53.5 33.125 53.5H46.875C48.6009 53.5 50 52.1009 50 50.375V39.125C50 38.0895 49.1606 37.25 48.125 37.25Z" fill="#0055FF"/>
<path d="M41.6878 45.3374C42.2069 44.8678 42.5018 44.1998 42.4991 43.4999C42.4991 42.1192 41.3797 40.9999 39.999 40.9999C38.6183 40.9999 37.499 42.1192 37.499 43.4999C37.4963 44.1998 37.7912 44.8678 38.3103 45.3374L37.5303 47.6774C37.4212 48.0049 37.5982 48.3588 37.9257 48.4679C37.9896 48.4892 38.0566 48.5 38.124 48.4999H41.874C42.2192 48.5003 42.4994 48.2209 42.4998 47.8757C42.4998 47.8084 42.489 47.7414 42.4677 47.6775L41.6878 45.3374Z" fill="#E5EEFF"/>
<path fill-rule="evenodd" clip-rule="evenodd" d="M65 75.7034V73.7034H64V75.7034H62V76.7034H64V78.7034H65V76.7034H67L67 75.7034H65Z" fill="#FFB700"/>
<path fill-rule="evenodd" clip-rule="evenodd" d="M17 3V1H16V3H14V4H16V6H17V4H19L19 3H17Z" fill="#FFB700"/>
<path fill-rule="evenodd" clip-rule="evenodd" d="M73 68C73 69.6569 74.3431 71 76 71C77.6569 71 79 69.6569 79 68C79 66.3431 77.6569 65 76 65C74.3431 65 73 66.3431 73 68ZM77.56 68C77.56 68.8616 76.8616 69.56 76 69.56C75.1384 69.56 74.44 68.8616 74.44 68C74.44 67.1384 75.1384 66.44 76 66.44C76.8616 66.44 77.56 67.1384 77.56 68Z" fill="#0055FF"/>
</svg>
