<svg width="320" height="160" viewBox="0 0 320 160" fill="none" xmlns="http://www.w3.org/2000/svg">
<mask id="mask0_11997_316208" style="mask-type:alpha" maskUnits="userSpaceOnUse" x="0" y="0" width="320" height="160">
<path d="M0 4C0 1.79086 1.79086 0 4 0H316C318.209 0 320 1.79086 320 4V160H0V4Z" fill="#C4C4C4"/>
</mask>
<g mask="url(#mask0_11997_316208)">
<rect width="320" height="160" fill="#D8EBFD"/>
<rect opacity="0.6" x="171.695" y="10.2227" width="110.305" height="110.305" rx="9.635" transform="rotate(67.685 171.695 10.2227)" fill="#CCDDFF"/>
<rect opacity="0.8" x="220.031" y="5.97461" width="43.1411" height="43.1411" rx="5.64976" transform="rotate(44.601 220.031 5.97461)" fill="#F2F6FF"/>
<path fill-rule="evenodd" clip-rule="evenodd" d="M78.4939 49.8008L116.342 46.6742C117.106 46.6111 117.864 46.8561 118.446 47.3548L130.137 57.3675C130.712 57.8594 131.069 58.558 131.131 59.3116L135.43 111.352C135.56 112.932 134.385 114.319 132.805 114.449L84.1664 118.467C82.5862 118.598 81.1994 117.423 81.0689 115.842L75.8692 52.8982C75.7386 51.3181 76.9138 49.9313 78.4939 49.8008Z" fill="white"/>
<path fill-rule="evenodd" clip-rule="evenodd" d="M78.4939 49.8008L116.342 46.6742C117.106 46.6111 117.864 46.8561 118.446 47.3548L130.137 57.3675C130.712 57.8594 131.069 58.558 131.131 59.3116L135.43 111.352C135.56 112.932 134.385 114.319 132.805 114.449L84.1664 118.467C82.5862 118.598 81.1994 117.423 81.0689 115.842L75.8692 52.8982C75.7386 51.3181 76.9138 49.9313 78.4939 49.8008ZM78.6121 51.2313C77.822 51.2966 77.2345 51.99 77.2997 52.78L82.4995 115.724C82.5647 116.514 83.2581 117.102 84.0482 117.037L132.687 113.019C133.477 112.953 134.065 112.26 133.999 111.47L129.7 59.4298C129.7 59.4282 129.7 59.4267 129.7 59.4251L129.745 59.9701L118.301 60.9155L116.87 61.0337L116.752 59.6031L115.806 48.1587L116.463 48.1045L116.46 48.1047L78.6121 51.2313ZM118.182 59.485L129.316 58.5652C129.281 58.5276 129.243 58.4917 129.203 58.4577L117.512 48.445C117.433 48.377 117.347 48.3183 117.256 48.2697L118.182 59.485Z" fill="#1A1A1A"/>
<path fill-rule="evenodd" clip-rule="evenodd" d="M103.222 57.7789L104.353 58.7945C106.747 60.9458 113.881 65.255 122.55 64.6363L123.919 64.5386L124.118 65.9169C125.15 73.0602 126.193 81.8533 124.377 89.8408C122.533 97.9545 117.741 105.219 107.306 109.158L106.9 109.311L106.476 109.217C95.5877 106.8 89.8127 100.29 86.835 92.5201C83.9036 84.8713 83.6867 76.0193 83.6939 68.8019L83.6953 67.4093L85.0642 67.3116C93.7334 66.6929 100.183 61.4143 102.248 58.9447L103.222 57.7789ZM101.993 89.5284L113.604 75.6855C114.327 74.8238 115.607 74.7324 116.445 75.4827C117.262 76.2145 117.352 77.4744 116.647 78.3148L104.351 92.9737C103.281 94.2488 101.387 94.384 100.148 93.2737L93.3868 87.2192C92.5697 86.4874 92.4798 85.2275 93.1847 84.3871C93.9075 83.5255 95.1875 83.4341 96.0253 84.1844L101.993 89.5284Z" fill="#E5EEFF"/>
<path d="M102.182 104.922C104.808 104.556 110.858 102.783 114.047 98.6191C116.863 94.9412 111.394 95.162 108.176 99.5588C106.127 102.358 106.323 106.983 115.554 104.44C124.784 101.897 120.372 99.4963 119.19 101.546C118.008 103.595 116.662 105.92 131.223 105.565" stroke="#0055FF" stroke-width="1.06547" stroke-linecap="round"/>
<path d="M130.867 105.057C130.573 105.057 130.334 105.295 130.334 105.589C130.334 105.884 130.573 106.122 130.867 106.122L130.867 105.057ZM203.674 86.7418L204.134 87.0112L203.674 86.7418ZM187.379 53.0024L187.379 52.4697L187.379 53.0024ZM171 91.3588L171.44 91.0592L171 91.3588ZM251.997 106.65C252.205 106.442 252.205 106.105 251.997 105.897L248.607 102.506C248.399 102.298 248.061 102.298 247.853 102.506C247.645 102.715 247.645 103.052 247.853 103.26L250.867 106.273L247.853 109.287C247.645 109.495 247.645 109.832 247.853 110.04C248.061 110.249 248.399 110.249 248.607 110.04L251.997 106.65ZM131.915 106.123C132.209 106.123 132.448 105.884 132.448 105.59C132.449 105.296 132.21 105.057 131.916 105.057L131.915 106.123ZM133.992 105.06C133.698 105.06 133.459 105.298 133.458 105.592C133.457 105.886 133.695 106.125 133.99 106.126L133.992 105.06ZM136.075 106.131C136.37 106.132 136.609 105.894 136.61 105.6C136.611 105.306 136.373 105.067 136.079 105.066L136.075 106.131ZM138.154 105.073C137.859 105.072 137.62 105.309 137.619 105.604C137.618 105.898 137.856 106.137 138.15 106.138L138.154 105.073ZM140.232 106.146C140.526 106.147 140.766 105.909 140.767 105.615C140.768 105.321 140.53 105.081 140.236 105.08L140.232 106.146ZM142.318 105.087C142.024 105.086 141.785 105.324 141.784 105.618C141.783 105.912 142.021 106.152 142.315 106.153L142.318 105.087ZM144.388 106.157C144.682 106.158 144.921 105.92 144.922 105.626C144.922 105.331 144.684 105.092 144.39 105.092L144.388 106.157ZM146.475 105.094C146.18 105.094 145.942 105.332 145.942 105.626C145.942 105.921 146.181 106.159 146.475 106.159L146.475 105.094ZM148.558 106.156C148.852 106.155 149.09 105.916 149.089 105.622C149.088 105.327 148.849 105.09 148.555 105.09L148.558 106.156ZM150.626 105.081C150.332 105.083 150.095 105.323 150.097 105.617C150.099 105.911 150.339 106.148 150.633 106.146L150.626 105.081ZM152.719 106.129C153.013 106.126 153.249 105.885 153.246 105.59C153.243 105.296 153.002 105.06 152.708 105.063L152.719 106.129ZM154.787 105.036C154.493 105.04 154.259 105.283 154.263 105.577C154.268 105.871 154.511 106.106 154.805 106.101L154.787 105.036ZM156.884 106.061C157.179 106.054 157.412 105.81 157.405 105.516C157.398 105.222 157.154 104.989 156.86 104.996L156.884 106.061ZM158.931 104.941C158.637 104.95 158.406 105.196 158.415 105.49C158.424 105.784 158.669 106.015 158.963 106.006L158.931 104.941ZM161.053 105.933C161.347 105.921 161.576 105.674 161.564 105.38C161.553 105.086 161.305 104.857 161.011 104.868L161.053 105.933ZM163.084 104.776C162.79 104.79 162.564 105.041 162.579 105.334C162.594 105.628 162.844 105.854 163.138 105.84L163.084 104.776ZM165.219 105.722C165.513 105.704 165.736 105.451 165.717 105.157C165.699 104.863 165.446 104.64 165.152 104.659L165.219 105.722ZM167.214 104.515C166.921 104.537 166.702 104.794 166.724 105.087C166.747 105.38 167.003 105.6 167.296 105.577L167.214 104.515ZM169.379 105.399C169.672 105.372 169.888 105.112 169.86 104.819C169.832 104.526 169.573 104.311 169.28 104.338L169.379 105.399ZM171.342 104.125C171.049 104.158 170.839 104.422 170.872 104.714C170.905 105.007 171.169 105.217 171.462 105.184L171.342 104.125ZM173.539 104.926C173.83 104.886 174.034 104.618 173.995 104.326C173.955 104.035 173.687 103.831 173.395 103.87L173.539 104.926ZM175.44 103.568C175.149 103.614 174.952 103.888 174.998 104.178C175.045 104.469 175.319 104.666 175.609 104.62L175.44 103.568ZM177.672 104.258C177.961 104.203 178.151 103.924 178.096 103.635C178.041 103.346 177.762 103.156 177.473 103.211L177.672 104.258ZM179.492 102.794C179.205 102.859 179.024 103.143 179.088 103.431C179.153 103.718 179.437 103.898 179.725 103.834L179.492 102.794ZM181.764 103.34C182.048 103.265 182.219 102.974 182.144 102.689C182.069 102.405 181.778 102.234 181.493 102.309L181.764 103.34ZM183.473 101.747C183.191 101.834 183.033 102.132 183.119 102.413C183.206 102.694 183.504 102.852 183.785 102.766L183.473 101.747ZM185.782 102.105C186.059 102.006 186.204 101.702 186.105 101.425C186.006 101.147 185.701 101.003 185.424 101.102L185.782 102.105ZM187.339 100.364C187.068 100.477 186.939 100.789 187.051 101.06C187.164 101.332 187.476 101.461 187.748 101.348L187.339 100.364ZM189.673 100.488C189.938 100.361 190.05 100.042 189.922 99.7772C189.795 99.512 189.476 99.4004 189.211 99.5279L189.673 100.488ZM191.03 98.5869C190.772 98.7299 190.68 99.0543 190.823 99.3114C190.966 99.5686 191.29 99.6611 191.547 99.5181L191.03 98.5869ZM193.361 98.4342C193.608 98.2752 193.68 97.9457 193.521 97.6981C193.362 97.4505 193.033 97.3786 192.785 97.5375L193.361 98.4342ZM194.468 96.3781C194.232 96.5529 194.181 96.8865 194.356 97.1231C194.531 97.3598 194.865 97.4099 195.101 97.2351L194.468 96.3781ZM196.759 95.9228C196.983 95.7325 197.011 95.3963 196.821 95.1719C196.63 94.9475 196.294 94.9198 196.07 95.1101L196.759 95.9228ZM197.583 93.7375C197.372 93.9424 197.367 94.2796 197.571 94.4908C197.776 94.702 198.114 94.7071 198.325 94.5023L197.583 93.7375ZM199.792 92.9815C199.99 92.7632 199.973 92.4263 199.754 92.229C199.536 92.0317 199.199 92.0487 199.002 92.267L199.792 92.9815ZM200.324 90.7071C200.141 90.9374 200.179 91.2725 200.41 91.4557C200.64 91.6388 200.975 91.6006 201.158 91.3704L200.324 90.7071ZM202.421 89.68C202.591 89.4392 202.532 89.1069 202.292 88.9378C202.051 88.7687 201.719 88.8268 201.55 89.0676L202.421 89.68ZM202.679 87.3585C202.524 87.6083 202.6 87.9368 202.85 88.0922C203.1 88.2477 203.429 88.1712 203.584 87.9214L202.679 87.3585ZM204.68 85.9971C204.81 85.7333 204.702 85.4138 204.438 85.2836C204.174 85.1534 203.854 85.2617 203.724 85.5256L204.68 85.9971ZM204.554 83.5321C204.458 83.81 204.605 84.1136 204.883 84.2102C205.16 84.3068 205.464 84.1599 205.561 83.882L204.554 83.5321ZM206.194 81.689C206.261 81.4025 206.083 81.1159 205.796 81.0488C205.51 80.9818 205.223 81.1596 205.156 81.4461L206.194 81.689ZM205.554 79.3022C205.513 79.5936 205.716 79.8628 206.008 79.9033C206.299 79.9438 206.568 79.7405 206.609 79.4491L205.554 79.3022ZM206.827 77.1864C206.843 76.8926 206.618 76.6414 206.324 76.6253C206.03 76.6091 205.779 76.8342 205.763 77.128L206.827 77.1864ZM205.796 74.9427C205.803 75.2368 206.047 75.4696 206.342 75.4626C206.636 75.4557 206.869 75.2116 206.862 74.9174L205.796 74.9427ZM206.721 72.6518C206.692 72.359 206.43 72.1455 206.138 72.1749C205.845 72.2043 205.631 72.4655 205.661 72.7582L206.721 72.6518ZM205.36 70.592C205.411 70.8817 205.688 71.0746 205.978 71.0229C206.267 70.9713 206.46 70.6946 206.408 70.4049L205.36 70.592ZM205.923 68.1872C205.849 67.9025 205.558 67.7319 205.273 67.8061C204.988 67.8803 204.818 68.1713 204.892 68.456L205.923 68.1872ZM204.255 66.3667C204.353 66.6443 204.657 66.7904 204.934 66.693C205.212 66.5955 205.358 66.2915 205.26 66.0138L204.255 66.3667ZM204.414 63.9019C204.292 63.634 203.977 63.5153 203.709 63.6369C203.441 63.7585 203.322 64.0742 203.444 64.3421L204.414 63.9019ZM202.452 62.4052C202.599 62.6602 202.924 62.7481 203.179 62.6014C203.434 62.4547 203.522 62.129 203.375 61.874L202.452 62.4052ZM202.136 59.9556C201.963 59.7174 201.63 59.6642 201.392 59.8369C201.153 60.0096 201.1 60.3427 201.273 60.5809L202.136 59.9556ZM199.905 58.9024C200.104 59.1192 200.441 59.1337 200.657 58.9348C200.874 58.7359 200.889 58.3989 200.69 58.1821L199.905 58.9024ZM199.038 56.591C198.814 56.4007 198.477 56.4283 198.287 56.6526C198.097 56.877 198.124 57.2132 198.349 57.4035L199.038 56.591ZM196.617 56.1203C196.865 56.2793 197.194 56.2075 197.353 55.9599C197.512 55.7124 197.44 55.3828 197.193 55.2238L196.617 56.1203ZM195.177 54.1151C194.91 53.9912 194.593 54.1072 194.469 54.374C194.345 54.6409 194.461 54.9577 194.728 55.0815L195.177 54.1151ZM192.72 54.3099C193.001 54.3968 193.3 54.2394 193.387 53.9583C193.473 53.6773 193.316 53.3789 193.035 53.292L192.72 54.3099ZM190.799 52.7564C190.509 52.7061 190.233 52.9004 190.183 53.1903C190.133 53.4801 190.327 53.7559 190.617 53.8062L190.799 52.7564ZM188.472 53.5647C188.765 53.5807 189.017 53.3556 189.033 53.0618C189.049 52.768 188.824 52.5168 188.53 52.5008L188.472 53.5647ZM186.263 52.489C185.968 52.4993 185.738 52.746 185.749 53.0401C185.759 53.3341 186.006 53.5641 186.3 53.5539L186.263 52.489ZM184.182 53.7067C184.475 53.6742 184.685 53.4108 184.653 53.1184C184.62 52.826 184.357 52.6153 184.065 52.6478L184.182 53.7067ZM181.882 52.9836C181.594 53.0409 181.406 53.3214 181.464 53.6099C181.521 53.8985 181.802 54.086 182.09 54.0286L181.882 52.9836ZM180.043 54.5364C180.325 54.4517 180.485 54.1547 180.4 53.8729C180.315 53.5911 180.018 53.4313 179.736 53.516L180.043 54.5364ZM177.649 54.2634C177.378 54.3772 177.25 54.6895 177.364 54.9608C177.478 55.2321 177.79 55.3597 178.062 55.2458L177.649 54.2634ZM176.168 56.1702C176.424 56.026 176.515 55.7012 176.371 55.4447C176.227 55.1883 175.902 55.0972 175.646 55.2414L176.168 56.1702ZM173.773 56.447C173.536 56.6209 173.485 56.9543 173.659 57.1916C173.833 57.4289 174.166 57.4802 174.403 57.3062L173.773 56.447ZM172.792 58.647C173.006 58.4453 173.016 58.1081 172.815 57.894C172.613 57.6798 172.276 57.6698 172.062 57.8715L172.792 58.647ZM170.535 59.4969C170.347 59.7232 170.378 60.0591 170.604 60.2471C170.831 60.4352 171.167 60.4042 171.355 60.1779L170.535 59.4969ZM170.109 61.8703C170.27 61.6236 170.2 61.2936 169.953 61.1333C169.706 60.9729 169.376 61.0429 169.216 61.2896L170.109 61.8703ZM168.11 63.2174C167.978 63.4802 168.084 63.8005 168.346 63.9328C168.609 64.0651 168.93 63.9593 169.062 63.6965L168.11 63.2174ZM168.212 65.6278C168.317 65.3529 168.179 65.0451 167.904 64.9402C167.629 64.8354 167.321 64.9733 167.216 65.2482L168.212 65.6278ZM166.527 67.3532C166.448 67.6368 166.614 67.9303 166.898 68.0088C167.181 68.0873 167.475 67.9211 167.553 67.6376L166.527 67.3532ZM167.078 69.7015C167.132 69.4123 166.941 69.1343 166.652 69.0806C166.362 69.027 166.084 69.218 166.031 69.5073L167.078 69.7015ZM165.717 71.6936C165.687 71.9863 165.9 72.248 166.192 72.2781C166.485 72.3083 166.747 72.0955 166.777 71.8028L165.717 71.6936ZM166.64 73.9228C166.648 73.6287 166.416 73.3839 166.122 73.3759C165.828 73.368 165.583 73.6 165.575 73.8941L166.64 73.9228ZM165.595 76.0974C165.609 76.3913 165.858 76.6189 166.151 76.6057C166.445 76.5925 166.673 76.3435 166.66 76.0496L165.595 76.0974ZM166.829 78.1711C166.796 77.8788 166.532 77.6691 166.239 77.7027C165.947 77.7363 165.737 78.0005 165.771 78.2928L166.829 78.1711ZM166.097 80.4703C166.15 80.7597 166.428 80.9509 166.717 80.8975C167.007 80.8441 167.198 80.5662 167.145 80.2769L166.097 80.4703ZM167.602 82.3561C167.529 82.0711 167.239 81.8992 166.954 81.9723C166.669 82.0453 166.497 82.3355 166.57 82.6205L167.602 82.3561ZM167.19 84.7329C167.282 85.0121 167.584 85.1634 167.863 85.0708C168.142 84.9781 168.294 84.6766 168.201 84.3974L167.19 84.7329ZM168.943 86.3919C168.831 86.1201 168.519 85.991 168.247 86.1036C167.975 86.2162 167.846 86.5279 167.959 86.7997L168.943 86.3919ZM168.879 88.8034C169.012 89.0658 169.333 89.1706 169.595 89.0374C169.858 88.9043 169.963 88.5837 169.83 88.3213L168.879 88.8034ZM170.866 90.1724C170.712 89.922 170.383 89.8442 170.133 89.9986C169.882 90.1531 169.805 90.4813 169.959 90.7317L170.866 90.1724ZM171.187 92.5418C171.362 92.778 171.696 92.8274 171.932 92.6521C172.169 92.4767 172.218 92.143 172.043 91.9068L171.187 92.5418ZM173.345 93.5143C173.15 93.2939 172.813 93.2732 172.593 93.4681C172.373 93.663 172.352 93.9996 172.547 94.2201L173.345 93.5143ZM174.049 95.7758C174.262 95.9783 174.599 95.9694 174.802 95.756C175.004 95.5426 174.996 95.2054 174.782 95.0029L174.049 95.7758ZM176.344 96.3603C176.113 96.177 175.778 96.215 175.595 96.4451C175.412 96.6752 175.45 97.0104 175.68 97.1937L176.344 96.3603ZM177.424 98.468C177.668 98.6318 177.999 98.5664 178.163 98.3219C178.327 98.0775 178.261 97.7466 178.017 97.5828L177.424 98.468ZM179.787 98.6721C179.531 98.5274 179.206 98.6178 179.062 98.874C178.917 99.1302 179.007 99.4552 179.264 99.5999L179.787 98.6721ZM181.171 100.591C181.437 100.718 181.755 100.606 181.882 100.34C182.009 100.075 181.896 99.7569 181.631 99.63L181.171 100.591ZM183.536 100.469C183.263 100.359 182.952 100.49 182.842 100.763C182.731 101.035 182.863 101.346 183.135 101.457L183.536 100.469ZM185.142 102.209C185.42 102.305 185.724 102.157 185.82 101.879C185.916 101.601 185.768 101.298 185.49 101.202L185.142 102.209ZM187.483 101.839C187.2 101.756 186.904 101.917 186.821 102.199C186.737 102.481 186.899 102.777 187.181 102.861L187.483 101.839ZM189.242 103.425C189.527 103.497 189.817 103.324 189.889 103.039C189.962 102.754 189.789 102.464 189.504 102.392L189.242 103.425ZM191.547 102.872C191.259 102.809 190.975 102.992 190.913 103.279C190.85 103.567 191.033 103.85 191.32 103.913L191.547 102.872ZM193.41 104.335C193.699 104.389 193.978 104.198 194.032 103.909C194.086 103.62 193.895 103.342 193.606 103.288L193.41 104.335ZM195.679 103.648C195.389 103.601 195.115 103.799 195.069 104.089C195.022 104.38 195.219 104.653 195.51 104.7L195.679 103.648ZM197.617 105.016C197.909 105.056 198.178 104.853 198.218 104.561C198.259 104.27 198.055 104.001 197.764 103.96L197.617 105.016ZM199.859 104.231C199.567 104.196 199.302 104.404 199.267 104.697C199.232 104.989 199.44 105.254 199.732 105.289L199.859 104.231ZM201.843 105.524C202.136 105.554 202.398 105.342 202.428 105.049C202.458 104.756 202.245 104.495 201.953 104.464L201.843 105.524ZM204.046 104.665C203.753 104.639 203.494 104.856 203.468 105.149C203.442 105.442 203.658 105.701 203.951 105.727L204.046 104.665ZM206.066 105.902C206.359 105.924 206.615 105.705 206.638 105.411C206.66 105.118 206.441 104.862 206.147 104.839L206.066 105.902ZM208.259 104.989C207.966 104.97 207.712 105.192 207.693 105.486C207.673 105.78 207.896 106.033 208.189 106.053L208.259 104.989ZM210.31 106.182C210.604 106.198 210.856 105.974 210.872 105.68C210.889 105.386 210.664 105.135 210.37 105.118L210.31 106.182ZM212.471 105.228C212.177 105.214 211.927 105.44 211.913 105.734C211.899 106.028 212.126 106.278 212.42 106.292L212.471 105.228ZM214.541 106.386C214.835 106.398 215.083 106.17 215.095 105.876C215.107 105.582 214.879 105.334 214.585 105.322L214.541 106.386ZM216.705 105.402C216.411 105.391 216.165 105.622 216.155 105.916C216.144 106.21 216.374 106.456 216.669 106.467L216.705 105.402ZM218.776 106.534C219.07 106.542 219.315 106.311 219.324 106.017C219.332 105.723 219.101 105.477 218.807 105.469L218.776 106.534ZM220.926 105.525C220.632 105.518 220.387 105.751 220.38 106.045C220.373 106.339 220.606 106.583 220.9 106.59L220.926 105.525ZM223.019 106.637C223.314 106.643 223.557 106.41 223.563 106.116C223.569 105.821 223.335 105.578 223.041 105.572L223.019 106.637ZM225.149 105.611C224.855 105.606 224.613 105.841 224.608 106.135C224.603 106.429 224.838 106.671 225.132 106.676L225.149 105.611ZM227.266 106.708C227.56 106.712 227.802 106.477 227.806 106.183C227.81 105.888 227.575 105.647 227.28 105.643L227.266 106.708ZM229.38 105.668C229.086 105.665 228.845 105.901 228.841 106.195C228.838 106.489 229.074 106.73 229.368 106.734L229.38 105.668ZM231.495 106.754C231.789 106.757 232.029 106.52 232.032 106.226C232.034 105.932 231.798 105.691 231.504 105.689L231.495 106.754ZM233.614 105.704C233.319 105.702 233.079 105.939 233.077 106.234C233.075 106.528 233.312 106.768 233.607 106.77L233.614 105.704ZM235.727 106.782C236.021 106.783 236.261 106.546 236.262 106.252C236.263 105.958 236.026 105.718 235.732 105.716L235.727 106.782ZM237.848 105.725C237.554 105.724 237.315 105.962 237.314 106.256C237.313 106.55 237.55 106.79 237.844 106.791L237.848 105.725ZM239.96 106.797C240.254 106.798 240.494 106.56 240.494 106.266C240.495 105.971 240.257 105.732 239.963 105.732L239.96 106.797ZM242.083 105.736C241.788 105.735 241.549 105.974 241.549 106.268C241.549 106.562 241.787 106.801 242.081 106.801L242.083 105.736ZM244.195 106.804C244.489 106.804 244.728 106.566 244.728 106.272C244.728 105.978 244.49 105.739 244.196 105.738L244.195 106.804ZM246.316 105.74C246.022 105.74 245.783 105.978 245.783 106.272C245.783 106.567 246.021 106.805 246.315 106.805L246.316 105.74ZM248.43 106.806C248.724 106.806 248.962 106.568 248.962 106.273C248.962 105.979 248.724 105.741 248.43 105.741L248.43 106.806ZM250.548 105.741C250.254 105.741 250.016 105.979 250.016 106.273C250.016 106.568 250.254 106.806 250.548 106.806L250.548 105.741ZM130.867 106.122C131.218 106.122 131.567 106.122 131.915 106.123L131.916 105.057C131.568 105.057 131.218 105.057 130.867 105.057L130.867 106.122ZM133.99 106.126C134.69 106.127 135.385 106.129 136.075 106.131L136.079 105.066C135.388 105.064 134.693 105.062 133.992 105.06L133.99 106.126ZM138.15 106.138C138.849 106.141 139.543 106.143 140.232 106.146L140.236 105.08C139.547 105.078 138.853 105.075 138.154 105.073L138.15 106.138ZM142.315 106.153C143.012 106.155 143.703 106.156 144.388 106.157L144.39 105.092C143.705 105.091 143.014 105.089 142.318 105.087L142.315 106.153ZM146.475 106.159C147.175 106.159 147.869 106.158 148.558 106.156L148.555 105.09C147.867 105.092 147.174 105.093 146.475 105.094L146.475 106.159ZM150.633 106.146C151.335 106.142 152.03 106.136 152.719 106.129L152.708 105.063C152.02 105.071 151.326 105.077 150.626 105.081L150.633 106.146ZM154.805 106.101C155.505 106.09 156.198 106.076 156.884 106.061L156.86 104.996C156.176 105.011 155.485 105.024 154.787 105.036L154.805 106.101ZM158.963 106.006C159.667 105.985 160.364 105.96 161.053 105.933L161.011 104.868C160.325 104.896 159.632 104.92 158.931 104.941L158.963 106.006ZM163.138 105.84C163.839 105.804 164.533 105.765 165.219 105.722L165.152 104.659C164.471 104.702 163.782 104.74 163.084 104.776L163.138 105.84ZM167.296 105.577C167.999 105.523 168.693 105.464 169.379 105.399L169.28 104.338C168.6 104.402 167.912 104.461 167.214 104.515L167.296 105.577ZM171.462 105.184C172.163 105.104 172.855 105.018 173.539 104.926L173.395 103.87C172.72 103.962 172.036 104.046 171.342 104.125L171.462 105.184ZM175.609 104.62C176.307 104.507 176.994 104.387 177.672 104.258L177.473 103.211C176.805 103.338 176.128 103.457 175.44 103.568L175.609 104.62ZM179.725 103.834C180.415 103.68 181.095 103.515 181.764 103.34L181.493 102.309C180.838 102.481 180.17 102.643 179.492 102.794L179.725 103.834ZM183.785 102.766C184.462 102.559 185.128 102.339 185.782 102.105L185.424 101.102C184.786 101.33 184.135 101.544 183.473 101.747L183.785 102.766ZM187.748 101.348C188.402 101.077 189.044 100.791 189.673 100.488L189.211 99.5279C188.6 99.8217 187.976 100.1 187.339 100.364L187.748 101.348ZM191.547 99.5181C192.165 99.1747 192.769 98.8137 193.361 98.4342L192.785 97.5375C192.213 97.9046 191.628 98.2542 191.03 98.5869L191.547 99.5181ZM195.101 97.2351C195.667 96.8173 196.219 96.3801 196.759 95.9228L196.07 95.1101C195.549 95.5519 195.015 95.9743 194.468 96.3781L195.101 97.2351ZM198.325 94.5023C198.826 94.0156 199.316 93.5089 199.792 92.9815L199.002 92.267C198.541 92.7773 198.068 93.2671 197.583 93.7375L198.325 94.5023ZM201.158 91.3704C201.591 90.8267 202.012 90.2635 202.421 89.68L201.55 89.0676C201.152 89.6341 200.743 90.1803 200.324 90.7071L201.158 91.3704ZM203.584 87.9214C203.77 87.6228 203.953 87.3194 204.134 87.0112L203.215 86.4724C203.039 86.7726 202.86 87.0679 202.679 87.3585L203.584 87.9214ZM204.134 87.0112C204.326 86.6836 204.508 86.3452 204.68 85.9971L203.724 85.5256C203.563 85.8517 203.393 86.1676 203.215 86.4724L204.134 87.0112ZM205.561 83.882C205.806 83.1764 206.017 82.4434 206.194 81.689L205.156 81.4461C204.988 82.1663 204.787 82.8635 204.554 83.5321L205.561 83.882ZM206.609 79.4491C206.712 78.7075 206.785 77.9516 206.827 77.1864L205.763 77.128C205.723 77.8644 205.653 78.5908 205.554 79.3022L206.609 79.4491ZM206.862 74.9174C206.844 74.1654 206.797 73.4088 206.721 72.6518L205.661 72.7582C205.734 73.4882 205.779 74.2178 205.796 74.9427L206.862 74.9174ZM206.408 70.4049C206.276 69.6607 206.114 68.92 205.923 68.1872L204.892 68.456C205.076 69.1613 205.232 69.8747 205.36 70.592L206.408 70.4049ZM205.26 66.0138C205.009 65.2964 204.727 64.591 204.414 63.9019L203.444 64.3421C203.743 65.0017 204.013 65.6779 204.255 66.3667L205.26 66.0138ZM203.375 61.874C202.995 61.2118 202.581 60.5708 202.136 59.9556L201.273 60.5809C201.696 61.1645 202.089 61.774 202.452 62.4052L203.375 61.874ZM200.69 58.1821C200.173 57.619 199.623 57.087 199.038 56.591L198.349 57.4035C198.898 57.8697 199.417 58.3708 199.905 58.9024L200.69 58.1821ZM197.193 55.2238C196.554 54.8133 195.882 54.4423 195.177 54.1151L194.728 55.0815C195.389 55.388 196.018 55.7356 196.617 56.1203L197.193 55.2238ZM193.035 53.292C192.318 53.0702 191.573 52.8905 190.799 52.7564L190.617 53.8062C191.346 53.9327 192.047 54.1017 192.72 54.3099L193.035 53.292ZM188.53 52.5008C188.152 52.4802 187.768 52.4697 187.379 52.4697L187.379 53.5352C187.749 53.5352 188.113 53.5451 188.472 53.5647L188.53 52.5008ZM187.379 52.4697C187.001 52.4697 186.629 52.4762 186.263 52.489L186.3 53.5539C186.654 53.5415 187.014 53.5352 187.379 53.5352L187.379 52.4697ZM184.065 52.6478C183.313 52.7314 182.585 52.8438 181.882 52.9836L182.09 54.0286C182.762 53.895 183.46 53.7871 184.182 53.7067L184.065 52.6478ZM179.736 53.516C179.011 53.7339 178.315 53.9837 177.649 54.2634L178.062 55.2458C178.692 54.981 179.353 54.7437 180.043 54.5364L179.736 53.516ZM175.646 55.2414C174.987 55.6117 174.363 56.0144 173.773 56.447L174.403 57.3062C174.959 56.8991 175.547 56.5195 176.168 56.1702L175.646 55.2414ZM172.062 57.8715C171.516 58.3854 171.008 58.9283 170.535 59.4969L171.355 60.1779C171.8 59.642 172.279 59.1307 172.792 58.647L172.062 57.8715ZM169.216 61.2896C168.812 61.911 168.444 62.5548 168.11 63.2174L169.062 63.6965C169.378 63.0676 169.727 62.4579 170.109 61.8703L169.216 61.2896ZM167.216 65.2482C166.954 65.9359 166.724 66.6387 166.527 67.3532L167.553 67.6376C167.743 66.9541 167.962 66.2832 168.212 65.6278L167.216 65.2482ZM166.031 69.5073C165.897 70.2287 165.793 70.9585 165.717 71.6936L166.777 71.8028C166.85 71.0953 166.95 70.3939 167.078 69.7015L166.031 69.5073ZM165.575 73.8941C165.555 74.627 165.562 75.3624 165.595 76.0974L166.66 76.0496C166.628 75.3396 166.621 74.6297 166.64 73.9228L165.575 73.8941ZM165.771 78.2928C165.855 79.0227 165.964 79.7495 166.097 80.4703L167.145 80.2769C167.016 79.5797 166.91 78.8769 166.829 78.1711L165.771 78.2928ZM166.57 82.6205C166.753 83.3345 166.96 84.0396 167.19 84.7329L168.201 84.3974C167.979 83.7278 167.779 83.0464 167.602 82.3561L166.57 82.6205ZM167.959 86.7997C168.242 87.4841 168.549 88.1531 168.879 88.8034L169.83 88.3213C169.512 87.696 169.217 87.0519 168.943 86.3919L167.959 86.7997ZM169.959 90.7317C170.153 91.0466 170.353 91.3557 170.559 91.6584L171.44 91.0592C171.244 90.7698 171.052 90.4741 170.866 90.1724L169.959 90.7317ZM170.559 91.6584C170.764 91.9586 170.973 92.2531 171.187 92.5418L172.043 91.9068C171.837 91.63 171.636 91.3475 171.44 91.0592L170.559 91.6584ZM172.547 94.2201C173.025 94.7614 173.526 95.2797 174.049 95.7758L174.782 95.0029C174.282 94.5282 173.803 94.0323 173.345 93.5143L172.547 94.2201ZM175.68 97.1937C176.239 97.6389 176.82 98.0633 177.424 98.468L178.017 97.5828C177.437 97.194 176.879 96.7868 176.344 96.3603L175.68 97.1937ZM179.264 99.5999C179.878 99.947 180.514 100.277 181.171 100.591L181.631 99.63C180.994 99.3259 180.38 99.0068 179.787 98.6721L179.264 99.5999ZM183.135 101.457C183.785 101.72 184.454 101.971 185.142 102.209L185.49 101.202C184.819 100.97 184.167 100.726 183.536 100.469L183.135 101.457ZM187.181 102.861C187.851 103.059 188.538 103.247 189.242 103.425L189.504 102.392C188.812 102.217 188.138 102.033 187.483 101.839L187.181 102.861ZM191.32 103.913C192.001 104.061 192.698 104.202 193.41 104.335L193.606 103.288C192.904 103.156 192.217 103.018 191.547 102.872L191.32 103.913ZM195.51 104.7C196.198 104.811 196.901 104.916 197.617 105.016L197.764 103.96C197.055 103.862 196.36 103.758 195.679 103.648L195.51 104.7ZM199.732 105.289C200.424 105.372 201.127 105.45 201.843 105.524L201.953 104.464C201.242 104.391 200.544 104.313 199.859 104.231L199.732 105.289ZM203.951 105.727C204.645 105.788 205.35 105.847 206.066 105.902L206.147 104.839C205.435 104.785 204.735 104.727 204.046 104.665L203.951 105.727ZM208.189 106.053C208.886 106.098 209.593 106.142 210.31 106.182L210.37 105.118C209.656 105.078 208.952 105.035 208.259 104.989L208.189 106.053ZM212.42 106.292C213.117 106.326 213.825 106.357 214.541 106.386L214.585 105.322C213.871 105.292 213.166 105.261 212.471 105.228L212.42 106.292ZM216.669 106.467C217.362 106.491 218.065 106.513 218.776 106.534L218.807 105.469C218.098 105.448 217.397 105.426 216.705 105.402L216.669 106.467ZM220.9 106.59C221.598 106.607 222.305 106.623 223.019 106.637L223.041 105.572C222.328 105.558 221.623 105.542 220.926 105.525L220.9 106.59ZM225.132 106.676C225.835 106.688 226.547 106.699 227.266 106.708L227.28 105.643C226.562 105.633 225.852 105.623 225.149 105.611L225.132 106.676ZM229.368 106.734C230.07 106.741 230.779 106.748 231.495 106.754L231.504 105.689C230.788 105.683 230.081 105.676 229.38 105.668L229.368 106.734ZM233.607 106.77C234.306 106.774 235.013 106.778 235.727 106.782L235.732 105.716C235.019 105.713 234.313 105.709 233.614 105.704L233.607 106.77ZM237.844 106.791C238.543 106.793 239.249 106.795 239.96 106.797L239.963 105.732C239.252 105.73 238.547 105.728 237.848 105.725L237.844 106.791ZM242.081 106.801C242.779 106.802 243.484 106.803 244.195 106.804L244.196 105.738C243.485 105.738 242.781 105.737 242.083 105.736L242.081 106.801ZM246.315 106.805C247.014 106.806 247.719 106.806 248.43 106.806L248.43 105.741C247.719 105.74 247.015 105.74 246.316 105.74L246.315 106.805ZM250.548 106.806C250.904 106.806 251.262 106.806 251.62 106.806L251.62 105.741C251.262 105.741 250.904 105.741 250.548 105.741L250.548 106.806Z" fill="#0055FF"/>
<path d="M159.28 86.1018C159.28 95.6167 149.691 100.133 149.691 100.133C149.691 100.133 140.102 95.6167 140.102 86.1018C140.102 80.8469 144.395 76.5869 149.691 76.5869C154.987 76.5869 159.28 80.8469 159.28 86.1018Z" fill="#0055FF"/>
<path d="M232.44 86.8122C232.44 96.3271 222.851 100.843 222.851 100.843C222.851 100.843 213.262 96.3271 213.262 86.8122C213.262 81.5573 217.555 77.2974 222.851 77.2974C228.147 77.2974 232.44 81.5573 232.44 86.8122Z" fill="#00CC44"/>
<path fill-rule="evenodd" clip-rule="evenodd" d="M154.491 84.2856V90.403C154.491 90.7409 154.217 91.0148 153.879 91.0148H145.315C144.977 91.0148 144.703 90.7409 144.703 90.403V84.2856C144.703 84.2226 144.713 84.1618 144.73 84.1046L149.597 88.3625L154.464 84.1046C154.482 84.1618 154.491 84.2226 154.491 84.2856ZM153.879 83.6738C153.924 83.6738 153.968 83.6787 154.011 83.6879L149.597 87.5496L145.184 83.6879C145.226 83.6787 145.27 83.6738 145.315 83.6738H153.879Z" fill="white"/>
<path fill-rule="evenodd" clip-rule="evenodd" d="M226.765 84.2856L227.901 85.328L221.086 92.4423L218.113 89.3409L219.192 88.2482L221.086 90.2397L226.765 84.2856Z" fill="white"/>
<circle cx="149.689" cy="105.565" r="1.95336" fill="white" stroke="#0055FF" stroke-width="1.06547"/>
<circle cx="204.385" cy="64.367" r="1.95336" fill="white" stroke="#0055FF" stroke-width="1.06547"/>
<circle cx="166.025" cy="78.5735" r="1.95336" fill="white" stroke="#0055FF" stroke-width="1.06547"/>
<circle cx="222.853" cy="105.565" r="1.95336" fill="white" stroke="#0055FF" stroke-width="1.06547"/>
<ellipse cx="107.441" cy="124.743" rx="17.7578" ry="2.84125" fill="#B3CCFF"/>
<path d="M70.7623 74.0272C70.611 73.1077 69.7429 72.485 68.8234 72.6363C67.904 72.7876 67.2813 73.6557 67.4326 74.5751L73.077 108.871L76.4067 108.323L70.7623 74.0272Z" fill="#1A1A1A"/>
<path d="M76.4062 108.323L73.0766 108.871L75.8922 115.589L76.4062 108.323Z" fill="#1A1A1A"/>
<path fill-rule="evenodd" clip-rule="evenodd" d="M69.6994 78.9897C69.654 78.7138 69.3936 78.527 69.1177 78.5724L66.2875 79.0382L67.8493 88.5278C67.8947 88.8037 68.1551 88.9905 68.431 88.9451C68.7068 88.8997 68.8936 88.6393 68.8482 88.3634L67.4508 79.8727L69.2821 79.5713C69.558 79.5259 69.7448 79.2655 69.6994 78.9897Z" fill="#1A1A1A"/>
</g>
</svg>
