<svg width="320" height="160" viewBox="0 0 320 160" fill="none" xmlns="http://www.w3.org/2000/svg">
<mask id="mask0_11997_316198" style="mask-type:alpha" maskUnits="userSpaceOnUse" x="0" y="0" width="320" height="160">
<path d="M0 4C0 1.79086 1.79086 0 4 0H316C318.209 0 320 1.79086 320 4V160H0V4Z" fill="#C4C4C4"/>
</mask>
<g mask="url(#mask0_11997_316198)">
<rect width="320" height="160" fill="#CCF5DA"/>
<rect x="150.777" y="128.19" width="69.5545" height="69.5545" rx="6.96667" transform="rotate(-153.587 150.777 128.19)" fill="white"/>
<rect x="165.688" y="122.314" width="76.7658" height="76.7658" rx="6.96667" transform="rotate(-135.462 165.688 122.314)" fill="#99EBB4"/>
<path d="M195.887 40.7538C185.735 39.4979 168.764 38.1848 160.892 38.9984C150.688 45.9188 148.681 47.6229 144.001 51.6803C132.116 81.4087 152.751 101.089 146.74 119.632C146.678 119.823 146.833 120.021 147.033 119.997L198.66 113.921C198.784 113.906 198.884 113.805 198.899 113.681C202.365 85.2881 185.106 69.7411 196.101 41.1302C196.165 40.9641 196.063 40.7756 195.887 40.7538Z" fill="white"/>
<path d="M160.892 38.9984C168.764 38.1848 185.735 39.4979 195.887 40.7538C196.063 40.7756 196.165 40.9641 196.101 41.1302C185.106 69.7411 202.365 85.2881 198.899 113.681C198.884 113.805 198.784 113.906 198.66 113.921L147.033 119.997C146.833 120.021 146.678 119.823 146.74 119.632C152.751 101.089 132.116 81.4087 144.001 51.6803M160.892 38.9984C150.688 45.9188 148.681 47.6229 144.001 51.6803M160.892 38.9984L159.358 51.652C159.342 51.7907 159.223 51.8943 159.083 51.8923L144.001 51.6803" stroke="black" stroke-width="1.29365"/>
<path d="M179.335 75.7985C179.429 74.9975 180.125 74.4386 180.93 74.3903C181.588 74.3508 182.231 74.6591 182.462 75.2761C182.62 75.6991 182.754 76.2284 182.743 76.7898C182.733 77.3071 182.661 77.8022 182.578 78.2131C182.442 78.8747 181.852 79.3119 181.178 79.3523C180.412 79.3984 179.705 78.9251 179.525 78.179C179.431 77.793 179.346 77.3693 179.305 76.9878C179.266 76.6138 179.289 76.1901 179.335 75.7985Z" fill="#1A1A1A"/>
<path d="M161.282 76.4824C161.13 75.5903 160.317 75.0051 159.412 74.9984C158.672 74.9929 157.97 75.3764 157.748 76.0816C157.595 76.565 157.476 77.1661 157.521 77.7946C157.563 78.3738 157.673 78.9243 157.791 79.3798C157.981 80.1134 158.668 80.5684 159.426 80.574C160.288 80.5804 161.052 80.0083 161.21 79.1614C161.292 78.7234 161.363 78.2435 161.386 77.8136C161.408 77.3921 161.357 76.9187 161.282 76.4824Z" fill="#1A1A1A"/>
<path d="M173.846 85.2177L167.225 85.6958C166.722 85.7321 166.362 86.1993 166.551 86.667C167.095 88.0101 168.413 89.6919 170.957 89.6814C173.594 89.6705 174.492 87.59 174.68 86.0244C174.737 85.55 174.322 85.1833 173.846 85.2177Z" fill="#1A1A1A"/>
<path d="M217.794 52.1779C218.156 50.9085 219.478 50.1727 220.748 50.5345C222.017 50.8963 222.753 52.2187 222.391 53.4881L208.895 100.837L204.298 99.5267L217.794 52.1779Z" fill="#1A1A1A"/>
<path d="M204.297 99.5264L208.894 100.837L203.844 109.835L204.297 99.5264Z" fill="#1A1A1A"/>
<path fill-rule="evenodd" clip-rule="evenodd" d="M218.487 59.3336C218.596 58.9528 218.992 58.732 219.373 58.8406L223.281 59.9543L219.546 73.0557C219.438 73.4365 219.041 73.6572 218.66 73.5487C218.279 73.4401 218.059 73.0434 218.167 72.6626L221.508 60.9403L218.98 60.2197C218.599 60.1111 218.379 59.7144 218.487 59.3336Z" fill="#1A1A1A"/>
<path d="M165.915 110.892C169.197 110.405 176.747 108.119 180.691 102.875C184.174 98.2424 177.333 98.5789 173.356 104.115C170.823 107.641 171.12 113.425 182.64 110.141C194.16 106.857 188.614 103.903 187.158 106.48C185.701 109.057 186.78 113.305 202.911 107.448" stroke="#0055FF" stroke-width="1.18557" stroke-linecap="round"/>
<mask id="path-13-outside-1_11997_316198" maskUnits="userSpaceOnUse" x="206.273" y="103.762" width="26" height="26" fill="black">
<rect fill="white" x="206.273" y="103.762" width="26" height="26"/>
<path fill-rule="evenodd" clip-rule="evenodd" d="M219.247 128.71C212.634 128.71 207.273 123.349 207.273 116.736C207.273 110.123 212.634 104.762 219.247 104.762C225.86 104.762 231.221 110.123 231.221 116.736C231.221 123.349 225.86 128.71 219.247 128.71Z"/>
</mask>
<path fill-rule="evenodd" clip-rule="evenodd" d="M219.247 128.71C212.634 128.71 207.273 123.349 207.273 116.736C207.273 110.123 212.634 104.762 219.247 104.762C225.86 104.762 231.221 110.123 231.221 116.736C231.221 123.349 225.86 128.71 219.247 128.71Z" fill="#00CC44"/>
<path d="M219.247 127.71C213.187 127.71 208.273 122.796 208.273 116.736H206.273C206.273 123.901 212.082 129.71 219.247 129.71V127.71ZM208.273 116.736C208.273 110.675 213.187 105.762 219.247 105.762V103.762C212.082 103.762 206.273 109.57 206.273 116.736H208.273ZM219.247 105.762C225.308 105.762 230.221 110.675 230.221 116.736H232.221C232.221 109.57 226.413 103.762 219.247 103.762V105.762ZM230.221 116.736C230.221 122.796 225.308 127.71 219.247 127.71V129.71C226.413 129.71 232.221 123.901 232.221 116.736H230.221Z" fill="white" mask="url(#path-13-outside-1_11997_316198)"/>
<path fill-rule="evenodd" clip-rule="evenodd" d="M217.043 119.301L225.26 111.336C225.598 111.009 226.135 111.009 226.472 111.336L226.986 111.834C227.339 112.176 227.339 112.742 226.986 113.084L217.649 122.135C217.312 122.462 216.775 122.462 216.437 122.135L211.512 117.361C211.159 117.019 211.159 116.452 211.512 116.11L212.026 115.613C212.363 115.285 212.9 115.285 213.238 115.613L217.043 119.301Z" fill="white"/>
<path d="M238.873 51.1001C240.797 51.1001 242.357 52.6596 242.357 54.5834C242.357 56.5072 240.797 58.0668 238.873 58.0668C236.949 58.0668 235.39 56.5072 235.39 54.5834C235.39 52.6596 236.949 51.1001 238.873 51.1001ZM238.873 51.9709C237.43 51.9709 236.261 53.1406 236.261 54.5834C236.261 56.0263 237.43 57.1959 238.873 57.1959C240.316 57.1959 241.486 56.0263 241.486 54.5834C241.486 53.1406 240.316 51.9709 238.873 51.9709ZM79.5107 94.6418C81.4345 94.6418 82.994 96.2013 82.994 98.1251C82.994 100.049 81.4345 101.608 79.5107 101.608C77.5869 101.608 76.0273 100.049 76.0273 98.1251C76.0273 96.2013 77.5869 94.6418 79.5107 94.6418ZM79.5107 95.5126C78.0678 95.5126 76.8982 96.6823 76.8982 98.1251C76.8982 99.5679 78.0678 100.738 79.5107 100.738C80.9535 100.738 82.1232 99.5679 82.1232 98.1251C82.1232 96.6823 80.9535 95.5126 79.5107 95.5126Z" fill="#00CC44"/>
<path d="M93.4375 113.378L93.6815 111.188H92.1219L92.3659 113.378L90.1931 112.759L89.9609 114.248L91.973 114.402L90.6574 116.17L92.0623 116.879L92.8779 115.027L93.8066 116.891L95.1579 116.17L93.8304 114.402L95.8544 114.259L95.6579 112.759L93.4375 113.378Z" fill="#FF8000"/>
<path d="M240.781 75.9602C241.064 75.6768 241.064 75.2173 240.781 74.9339C240.497 74.6505 240.038 74.6505 239.755 74.9339L238.215 76.4734C237.932 76.7568 237.932 77.2163 238.215 77.4997C238.499 77.7831 238.958 77.7831 239.241 77.4997L240.781 75.9602Z" fill="#FF8000"/>
<path d="M244.373 76.4734L242.833 74.9339C242.55 74.6505 242.091 74.6505 241.807 74.9339C241.524 75.2173 241.524 75.6768 241.807 75.9602L243.347 77.4997C243.63 77.7831 244.089 77.7831 244.373 77.4997C244.656 77.2163 244.656 76.7568 244.373 76.4734Z" fill="#FF8000"/>
<path d="M244.373 72.3682C244.656 72.0848 244.656 71.6253 244.373 71.3419C244.089 71.0585 243.63 71.0585 243.347 71.3419L241.807 72.8814C241.524 73.1648 241.524 73.6243 241.807 73.9077C242.091 74.1911 242.55 74.1911 242.833 73.9077L244.373 72.3682Z" fill="#FF8000"/>
<path d="M240.781 72.8814L239.241 71.3419C238.958 71.0585 238.499 71.0585 238.215 71.3419C237.932 71.6253 237.932 72.0848 238.215 72.3682L239.755 73.9077C240.038 74.1911 240.497 74.1911 240.781 73.9077C241.064 73.6243 241.064 73.1648 240.781 72.8814Z" fill="#FF8000"/>
<ellipse opacity="0.2" cx="160.734" cy="139.933" rx="25.3122" ry="3.94778" fill="#00CC44"/>
</g>
</svg>
