<svg width="600" height="320" viewBox="0 0 600 320" fill="none" xmlns="http://www.w3.org/2000/svg">
<path fill-rule="evenodd" clip-rule="evenodd" d="M433.333 257.501C433.333 258.975 434.527 260.169 436 260.169C437.473 260.169 438.667 258.975 438.667 257.501C438.667 256.027 437.473 254.832 436 254.832C434.527 254.832 433.333 256.027 433.333 257.501ZM437.334 257.501C437.334 258.238 436.737 258.835 436 258.835C435.264 258.835 434.667 258.238 434.667 257.501C434.667 256.764 435.264 256.166 436 256.166C436.737 256.166 437.334 256.764 437.334 257.501Z" fill="#E667E6"/>
<path fill-rule="evenodd" clip-rule="evenodd" d="M464 142.746C464 144.22 465.194 145.414 466.667 145.414C468.139 145.414 469.333 144.22 469.333 142.746C469.333 141.272 468.139 140.077 466.667 140.077C465.194 140.077 464 141.272 464 142.746ZM468 142.746C468 143.483 467.403 144.08 466.667 144.08C465.93 144.08 465.333 143.483 465.333 142.746C465.333 142.009 465.93 141.411 466.667 141.411C467.403 141.411 468 142.009 468 142.746Z" fill="#E667E6"/>
<path fill-rule="evenodd" clip-rule="evenodd" d="M450.667 240.154V237.485H452V240.154H454.667V241.488H452V244.157H450.667V241.488H448L448 240.154H450.667Z" fill="#E667E6"/>
<path fill-rule="evenodd" clip-rule="evenodd" d="M150.667 77.3621C150.667 78.836 151.86 80.0308 153.333 80.0308C154.806 80.0308 156 78.836 156 77.3621C156 75.8882 154.806 74.6934 153.333 74.6934C151.86 74.6934 150.667 75.8882 150.667 77.3621ZM154.667 77.3621C154.667 78.099 154.07 78.6964 153.333 78.6964C152.597 78.6964 152 78.099 152 77.3621C152 76.6251 152.597 76.0277 153.333 76.0277C154.07 76.0277 154.667 76.6251 154.667 77.3621Z" fill="#E667E6"/>
<path fill-rule="evenodd" clip-rule="evenodd" d="M420 94.7088C420 96.1827 421.194 97.3775 422.667 97.3775C424.139 97.3775 425.333 96.1827 425.333 94.7088C425.333 93.2349 424.139 92.04 422.667 92.04C421.194 92.04 420 93.2349 420 94.7088ZM424 94.7088C424 95.4457 423.403 96.0431 422.667 96.0431C421.93 96.0431 421.333 95.4457 421.333 94.7088C421.333 93.9718 421.93 93.3744 422.667 93.3744C423.403 93.3744 424 93.9718 424 94.7088Z" fill="#E667E6"/>
<path fill-rule="evenodd" clip-rule="evenodd" d="M173.075 58.8534C173.42 58.5087 173.42 57.9499 173.075 57.6052C172.731 57.2605 172.172 57.2605 171.828 57.6052L169.957 59.4775C169.613 59.8222 169.613 60.381 169.957 60.7257C170.302 61.0703 170.86 61.0703 171.204 60.7257L173.075 58.8534ZM168.71 63.222C169.054 62.8774 169.054 62.3185 168.71 61.9739C168.365 61.6292 167.807 61.6292 167.463 61.9739L165.592 63.8461C165.247 64.1908 165.247 64.7497 165.592 65.0943C165.936 65.439 166.495 65.439 166.839 65.0943L168.71 63.222ZM173.075 65.0943C172.731 65.439 172.172 65.439 171.828 65.0943L169.957 63.222C169.613 62.8774 169.613 62.3185 169.957 61.9739C170.302 61.6292 170.86 61.6292 171.204 61.9739L173.075 63.8461C173.42 64.1908 173.42 64.7497 173.075 65.0943ZM167.463 60.7257C167.807 61.0703 168.365 61.0703 168.71 60.7257C169.054 60.381 169.054 59.8222 168.71 59.4775L166.839 57.6052C166.495 57.2605 165.936 57.2605 165.592 57.6052C165.247 57.9499 165.247 58.5087 165.592 58.8534L167.463 60.7257Z" fill="#E667E6"/>
<path fill-rule="evenodd" clip-rule="evenodd" d="M442.408 76.2001C442.753 75.8554 442.753 75.2965 442.408 74.9519C442.064 74.6072 441.505 74.6072 441.161 74.9519L439.29 76.8242C438.946 77.1688 438.946 77.7277 439.29 78.0723C439.635 78.417 440.193 78.417 440.537 78.0723L442.408 76.2001ZM438.043 80.5687C438.387 80.224 438.387 79.6652 438.043 79.3205C437.699 78.9759 437.14 78.9759 436.796 79.3205L434.925 81.1928C434.58 81.5375 434.58 82.0963 434.925 82.441C435.269 82.7857 435.828 82.7857 436.172 82.441L438.043 80.5687ZM442.408 82.441C442.064 82.7857 441.505 82.7857 441.161 82.441L439.29 80.5687C438.946 80.224 438.946 79.6652 439.29 79.3205C439.635 78.9759 440.193 78.9759 440.537 79.3205L442.408 81.1928C442.753 81.5375 442.753 82.0963 442.408 82.441ZM436.796 78.0723C437.14 78.417 437.699 78.417 438.043 78.0723C438.387 77.7277 438.387 77.1688 438.043 76.8242L436.172 74.9519C435.828 74.6072 435.269 74.6072 434.925 74.9519C434.58 75.2965 434.58 75.8554 434.925 76.2001L436.796 78.0723Z" fill="#E667E6"/>
<path fill-rule="evenodd" clip-rule="evenodd" d="M145.075 236.323C145.42 235.978 145.42 235.42 145.075 235.075C144.731 234.73 144.172 234.73 143.828 235.075L141.957 236.947C141.613 237.292 141.613 237.851 141.957 238.195C142.302 238.54 142.86 238.54 143.204 238.195L145.075 236.323ZM140.71 240.692C141.054 240.347 141.054 239.788 140.71 239.444C140.365 239.099 139.807 239.099 139.463 239.444L137.592 241.316C137.247 241.661 137.247 242.219 137.592 242.564C137.936 242.909 138.495 242.909 138.839 242.564L140.71 240.692ZM145.075 242.564C144.731 242.909 144.172 242.909 143.828 242.564L141.957 240.692C141.613 240.347 141.613 239.788 141.957 239.444C142.302 239.099 142.86 239.099 143.204 239.444L145.075 241.316C145.42 241.661 145.42 242.219 145.075 242.564ZM139.463 238.195C139.807 238.54 140.365 238.54 140.71 238.195C141.054 237.851 141.054 237.292 140.71 236.947L138.839 235.075C138.495 234.73 137.936 234.73 137.592 235.075C137.247 235.42 137.247 235.978 137.592 236.323L139.463 238.195Z" fill="#E667E6"/>
<path fill-rule="evenodd" clip-rule="evenodd" d="M131.463 160.803C131.807 161.147 132.365 161.147 132.71 160.803C133.054 160.458 133.054 159.899 132.71 159.554L130.839 157.682C130.495 157.337 129.936 157.337 129.592 157.682C129.247 158.027 129.247 158.586 129.592 158.93L131.463 160.803ZM137.075 158.93C137.42 158.586 137.42 158.027 137.075 157.682C136.731 157.337 136.172 157.337 135.828 157.682L133.957 159.554C133.613 159.899 133.613 160.458 133.957 160.803C134.302 161.147 134.86 161.147 135.204 160.803L137.075 158.93ZM132.71 163.299C133.054 162.954 133.054 162.395 132.71 162.051C132.365 161.706 131.807 161.706 131.463 162.051L129.592 163.923C129.247 164.268 129.247 164.827 129.592 165.171C129.936 165.516 130.495 165.516 130.839 165.171L132.71 163.299ZM137.075 165.171C136.731 165.516 136.172 165.516 135.828 165.171L133.957 163.299C133.613 162.954 133.613 162.395 133.957 162.051C134.302 161.706 134.86 161.706 135.204 162.051L137.075 163.923C137.42 164.268 137.42 164.827 137.075 165.171Z" fill="#E667E6"/>
<path fill-rule="evenodd" clip-rule="evenodd" d="M180 90.0369C180 88.9323 180.896 88.0369 182 88.0369L264 88.0369L296 120.061V234.151C296 235.255 295.105 236.151 294 236.151H182C180.896 236.151 180 235.255 180 234.151V90.0369Z" fill="#E667E6"/>
<path opacity="0.3" fill-rule="evenodd" clip-rule="evenodd" d="M264 88.0369L296 120.062H265C264.448 120.062 264 119.614 264 119.062V88.0369Z" fill="white"/>
<path fill-rule="evenodd" clip-rule="evenodd" d="M304 90.0369C304 88.9323 304.896 88.0369 306 88.0369L388 88.0369L420 120.061V234.151C420 235.255 419.105 236.151 418 236.151H306C304.896 236.151 304 235.255 304 234.151V90.0369Z" fill="#B350B3"/>
<path fill-rule="evenodd" clip-rule="evenodd" d="M334.281 213.425C335.485 213.612 337.003 213.171 338.679 212.277C340.693 211.202 341.768 210.321 341.843 209.728C341.923 209.095 341.958 208.451 341.951 207.794C341.193 207.468 340.547 207.049 340.086 206.545C339.19 205.565 338.976 203.644 339.143 201.287C339.205 200.408 339.325 199.576 339.475 198.996C339.583 198.58 339.7 198.278 339.914 198.009C340.68 197.045 341.941 197.405 342.36 198.362C343.483 200.925 344.21 203.395 344.49 205.778C344.693 205.817 344.901 205.849 345.112 205.874C345.807 205.954 346.456 206.013 347.063 206.048C346.777 205.547 346.611 205.078 346.56 204.636C346.318 202.527 348.119 201.709 350.346 201.896C352.035 202.038 353.832 202.725 354.714 203.696C356.22 205.353 355.218 207.095 352.697 208.06C353.063 208.352 353.459 208.657 353.886 208.974C354.014 209.069 354.991 209.026 355.794 208.772C356.061 208.688 356.341 208.602 356.687 208.496L356.819 208.456C357.101 208.37 357.75 208.173 357.971 208.105C360.36 207.372 361.885 206.782 362.927 206.108C361.991 205.855 361.339 205.577 360.943 205.266C360.032 204.551 359.995 203.307 360.954 202.626C361.369 202.331 361.919 202.178 362.565 202.112C363.836 201.982 365.217 202.207 366.087 202.852C366.59 203.225 366.893 203.674 367.009 204.168C367.159 204.189 367.313 204.21 367.47 204.231C369.128 204.453 370.132 204.46 371.526 204.345C372.348 204.277 372.427 204.272 372.767 204.266C373.954 204.244 375.022 204.483 376.537 205.149L375.463 207.592C374.286 207.074 373.595 206.92 372.814 206.934C372.559 206.939 372.489 206.944 371.745 207.005C370.173 207.134 368.983 207.126 367.117 206.876C366.796 206.834 366.488 206.79 366.193 206.746C366.037 206.94 365.862 207.133 365.667 207.324C364.235 208.729 362.332 209.558 358.753 210.657C358.526 210.726 357.863 210.928 357.586 211.012L357.464 211.049C357.126 211.152 356.853 211.236 356.596 211.318C355.034 211.81 353.331 211.886 352.295 211.116C351.139 210.256 350.163 209.463 349.362 208.728C348.034 208.807 346.537 208.726 344.805 208.524C344.74 208.517 344.675 208.509 344.611 208.5C344.594 209.025 344.554 209.546 344.489 210.062C344.257 211.898 342.769 213.12 339.933 214.632C337.792 215.774 335.781 216.359 333.871 216.062C329.194 215.334 327.071 212.053 327.334 207.754C327.093 207.591 326.84 207.413 326.57 207.22C325.645 206.56 325.235 206.287 324.708 206.008L325.959 203.651C326.56 203.97 327.008 204.26 327.847 204.854C328.597 202.32 330.052 200.336 331.665 200.716C333.674 201.19 335.436 203.259 335.899 205.382C336.486 208.077 334.765 210.013 331.573 209.563C331 209.482 330.499 209.368 330.012 209.201C330.236 211.503 331.575 213.004 334.281 213.425ZM351.524 205.646C351.933 205.507 352.239 205.372 352.447 205.259C351.929 204.936 350.992 204.629 350.123 204.556C349.78 204.527 349.487 204.538 349.281 204.576C349.422 204.903 349.764 205.364 350.317 205.941C350.752 205.87 351.153 205.773 351.524 205.646ZM333.293 205.951C333.491 206.857 333.269 207.107 331.945 206.92C331.317 206.832 330.801 206.679 330.214 206.385C330.388 205.603 330.649 204.854 330.962 204.228C331.124 203.905 331.288 203.64 331.433 203.455C332.252 203.865 333.071 204.928 333.293 205.951Z" fill="white"/>
<path opacity="0.3" fill-rule="evenodd" clip-rule="evenodd" d="M388 88.0369L420 120.062H389C388.448 120.062 388 119.614 388 119.062V88.0369Z" fill="white"/>
<rect opacity="0.3" x="204" y="145.415" width="68" height="2.66872" fill="white"/>
<rect opacity="0.3" x="328" y="145.415" width="68" height="2.66872" fill="white"/>
<rect opacity="0.3" x="204" y="161.427" width="68" height="2.66872" fill="white"/>
<rect opacity="0.3" x="328" y="161.427" width="68" height="2.66872" fill="white"/>
<rect opacity="0.3" x="204" y="177.439" width="68" height="2.6687" fill="white"/>
<rect opacity="0.3" x="328" y="177.439" width="68" height="2.6687" fill="white"/>
<rect opacity="0.3" x="204" y="193.451" width="68" height="2.66872" fill="white"/>
<rect opacity="0.3" x="328" y="209.464" width="68" height="2.66872" fill="white"/>
<rect opacity="0.3" x="204" y="209.464" width="68" height="2.66872" fill="white"/>
<path fill-rule="evenodd" clip-rule="evenodd" d="M148.889 136.729C148.417 137.151 147.794 137.408 147.111 137.408H141.778V135.629H147.111C147.602 135.629 148 135.231 148 134.739V108.052C148 107.561 147.602 107.163 147.111 107.163H141.778V105.384H147.111C147.794 105.384 148.417 105.641 148.889 106.063C149.361 105.641 149.984 105.384 150.667 105.384H156V107.163H150.667C150.176 107.163 149.778 107.561 149.778 108.052V134.739C149.778 135.231 150.176 135.629 150.667 135.629H156V137.408H150.667C149.984 137.408 149.361 137.151 148.889 136.729ZM136.695 123.614L133.608 114.391L130.458 123.614H136.695ZM144.444 132.071V130.762L142.082 130.475L135.309 110.721H133.419L126.678 130.347L124 130.762V132.071H131.245V130.762L128.19 130.347L129.954 125.114H137.199L138.963 130.379L135.876 130.762V132.071H144.444Z" fill="#E667E6"/>
<path fill-rule="evenodd" clip-rule="evenodd" d="M146.667 189.448C146.667 190.922 147.86 192.117 149.333 192.117C150.806 192.117 152 190.922 152 189.448C152 187.974 150.806 186.78 149.333 186.78C147.86 186.78 146.667 187.974 146.667 189.448ZM150.667 189.448C150.667 190.185 150.07 190.783 149.333 190.783C148.597 190.783 148 190.185 148 189.448C148 188.711 148.597 188.114 149.333 188.114C150.07 188.114 150.667 188.711 150.667 189.448Z" fill="#E667E6"/>
<path fill-rule="evenodd" clip-rule="evenodd" d="M290.711 74.0259H304V75.3603H290.151C289.149 77.5285 288.038 78.7954 286.777 79.1652C285.824 79.4445 285.044 79.2304 284.663 78.5011C284.374 77.9465 284.38 77.1868 284.609 76.266C284.68 75.9765 284.774 75.6728 284.888 75.3603H280V74.0259H285.461C285.978 72.979 286.653 71.9192 287.392 71.0258C287.613 70.7588 287.834 70.5058 288.057 70.2656C289.017 69.231 289.973 68.4474 291.139 67.7442C291.433 66.4059 291.717 65.1636 291.992 64.0169C290.565 64.5582 288.903 65.0197 287.008 65.4014L286.745 64.0933C289.005 63.6379 290.88 63.0836 292.381 62.4306C293.203 59.1688 293.935 56.8195 294.582 55.373C295.807 52.6352 297.416 52.6533 298.114 55.5129C298.938 58.8897 297.362 61.5048 293.524 63.3612C293.256 64.4462 292.978 65.6292 292.69 66.9101C293.08 66.7214 293.493 66.5336 293.935 66.3428C294.512 66.0938 294.804 65.9737 296.214 65.4015C298.125 64.6259 299.293 64.6129 299.174 65.9662C299.125 66.5336 298.764 67.102 297.811 68.3688C297.772 68.4202 297.772 68.4202 297.734 68.4714C297.321 69.0185 297.325 69.0138 297.191 69.1968C296.861 69.6475 296.535 70.0871 296.214 70.516C296.776 70.1864 297.436 69.7903 298.192 69.3279C300.001 68.2211 301.373 67.6593 302.374 67.6593C303.629 67.6593 304.303 68.5191 304.273 69.9119L302.94 69.8825C302.955 69.181 302.808 68.9936 302.374 68.9936C301.686 68.9936 300.502 69.479 298.887 70.4665C297.162 71.522 295.926 72.2402 295.17 72.6258C294.738 72.8464 294.453 72.9668 294.235 73.0018C293.831 73.0667 293.388 72.9121 293.368 72.3324C293.36 72.0815 293.445 71.9289 293.598 71.7397C294.405 70.7083 295.244 69.5978 296.115 68.4082C296.255 68.2174 296.251 68.2226 296.67 67.6675C296.708 67.6168 296.708 67.6168 296.746 67.5661C297.156 67.0217 297.447 66.6065 297.627 66.3138C297.388 66.3816 297.083 66.4887 296.715 66.638C295.316 67.2057 295.027 67.3246 294.463 67.568C293.65 67.9189 292.947 68.2553 292.316 68.605C292.29 68.723 292.265 68.8418 292.239 68.9613C291.756 70.9326 291.249 72.6205 290.711 74.0259ZM289.275 74.0259C289.759 72.8391 290.232 71.3837 290.686 69.6609C290.105 70.1037 289.571 70.5954 289.034 71.1737C288.829 71.3951 288.624 71.6289 288.419 71.8765C287.884 72.5233 287.385 73.2702 286.966 74.0259H289.275ZM288.669 75.3603H286.318C286.139 75.7911 285.997 76.2063 285.903 76.5874C285.746 77.2208 285.742 77.6851 285.845 77.8828C285.891 77.9714 286.002 78.0019 286.402 77.8846C287.16 77.6627 287.924 76.8197 288.669 75.3603ZM296.819 55.8294C296.44 54.2778 296.532 54.2789 295.799 55.9183C295.262 57.118 294.65 59.0204 293.966 61.6224C296.471 60.1125 297.392 58.1808 296.819 55.8294ZM283.556 68.6885L285.333 70.4676L284.444 71.3572L282.667 69.5781L280.889 71.3572L280 70.4676L281.778 68.6885L280 66.9093L280.889 66.0198L282.667 67.7989L284.444 66.0198L285.333 66.9093L283.556 68.6885Z" fill="#E667E6"/>
<path fill-rule="evenodd" clip-rule="evenodd" d="M473.333 178.409L467.03 172.102L438.667 200.487V206.795H444.97L473.333 178.409ZM446.545 202.064L470.182 178.409L467.03 175.256L443.394 198.91L446.545 202.064ZM444.97 203.641L441.818 200.487L440.895 201.411V204.565H444.046L444.97 203.641Z" fill="#E667E6"/>
<rect x="312" y="182.777" width="9.33333" height="9.34052" fill="white"/>
<rect x="324" y="186.78" width="5.33333" height="1.33436" fill="white"/>
<rect x="317.333" y="194.786" width="5.33745" height="1.33333" transform="rotate(90 317.333 194.786)" fill="white"/>
<rect x="385.333" y="194.786" width="5.33745" height="1.33333" transform="rotate(90 385.333 194.786)" fill="white"/>
<rect x="317.333" y="202.792" width="5.33745" height="1.33333" transform="rotate(90 317.333 202.792)" fill="white"/>
<rect x="385.333" y="202.792" width="5.33745" height="1.33333" transform="rotate(90 385.333 202.792)" fill="white"/>
<rect x="317.333" y="210.798" width="5.33743" height="1.33333" transform="rotate(90 317.333 210.798)" fill="white"/>
<rect x="385.333" y="210.798" width="5.33743" height="1.33333" transform="rotate(90 385.333 210.798)" fill="white"/>
<rect x="324" y="222.807" width="5.33333" height="1.33434" fill="white"/>
<rect x="340" y="186.78" width="5.33332" height="1.33436" fill="white"/>
<rect x="340" y="222.807" width="5.33332" height="1.33434" fill="white"/>
<rect x="356" y="186.78" width="5.33332" height="1.33436" fill="white"/>
<rect x="356" y="222.807" width="5.33332" height="1.33434" fill="white"/>
<rect x="332" y="186.78" width="5.33333" height="1.33436" fill="white"/>
<rect x="332" y="222.807" width="5.33333" height="1.33434" fill="white"/>
<rect x="348" y="186.78" width="5.33334" height="1.33436" fill="white"/>
<rect x="348" y="222.807" width="5.33334" height="1.33434" fill="white"/>
<rect x="364" y="186.78" width="5.33337" height="1.33436" fill="white"/>
<rect x="364" y="222.807" width="5.33337" height="1.33434" fill="white"/>
<rect x="372" y="186.78" width="5.33332" height="1.33436" fill="white"/>
<rect x="372" y="222.807" width="5.33332" height="1.33434" fill="white"/>
<rect x="312" y="218.804" width="9.33333" height="9.34052" fill="white"/>
<rect x="380" y="182.777" width="9.33333" height="9.34052" fill="white"/>
<rect x="380" y="218.804" width="9.33333" height="9.34052" fill="white"/>
</svg>
