<svg width="80" height="80" viewBox="0 0 80 80" fill="none" xmlns="http://www.w3.org/2000/svg">
<g clip-path="url(#clip0_12356_54918)">
<rect x="81.5137" y="61.7123" width="61.3481" height="61.3481" rx="9.58156" transform="rotate(160.628 81.5137 61.7123)" fill="#F2F6FF"/>
<path d="M62.2858 70.0395L29.6608 63.5635C28.27 63.2875 27.3667 61.9362 27.6428 60.5454C27.9189 59.1547 29.2697 58.2513 30.6604 58.5274L63.2855 65.0033C64.6762 65.2794 65.5796 66.6302 65.3035 68.0209C65.0279 69.4118 63.6766 70.3155 62.2858 70.0395Z" fill="#E6A500"/>
<path d="M62.9063 56.711L56.8047 55.4998C53.4589 47.4115 55.3843 39.9964 57.1473 35.7899C57.8801 34.0406 58.9643 32.4692 60.2694 31.0925C61.2978 30.0073 62.0416 28.6279 62.352 27.0519C63.1866 22.811 60.5328 18.6019 56.3427 17.5408C51.7624 16.3808 47.2028 19.3026 46.2945 23.8781C45.973 25.498 46.1547 27.0999 46.7295 28.5248C47.3517 30.0652 47.7296 31.6925 47.7799 33.3527C47.9156 37.8328 47.086 45.8224 40.6354 52.2903L34.4465 51.0618C30.1216 50.2034 25.9199 53.0133 25.0614 57.3382L24.573 59.7987L68.6938 68.5564L69.1822 66.096C70.0407 61.7711 67.2307 57.5694 62.9063 56.711Z" fill="#FFB700"/>
<path d="M52.255 24.0829C55.0654 34.6227 48.7995 45.4447 38.2602 48.2551C27.721 51.0654 16.8991 44.7999 14.0886 34.2602C11.2782 23.7209 17.5437 12.899 28.0829 10.0887C38.6222 7.27832 49.4446 13.5436 52.255 24.0829Z" fill="white"/>
<path d="M37.4662 45.2683C46.3413 42.9017 51.6367 33.7554 49.2701 24.8802C46.9035 16.0051 37.7573 10.7102 28.8821 13.0768C20.007 15.4434 14.712 24.5891 17.0786 33.4643C19.4452 42.3394 28.591 47.635 37.4662 45.2683ZM21.8451 31.1353L18.8262 31.9403C18.205 28.7305 18.6967 25.526 20.0523 22.7576L22.751 24.3196C23.8924 24.9804 24.9173 23.2101 23.7754 22.5495L21.0772 20.9873C22.8036 18.4331 25.3378 16.4112 28.4303 15.3519L29.2353 18.3708C29.5751 19.6451 31.5516 19.1181 31.2118 17.8437L30.4068 14.8248C33.616 14.2037 36.8206 14.6954 39.589 16.0511L38.0274 18.7491C37.3662 19.8911 39.1363 20.9155 39.7971 19.7741L41.3592 17.076C43.9138 18.8017 45.9359 21.3365 46.9947 24.429L43.9763 25.2339C42.7014 25.5738 43.2283 27.5498 44.5032 27.2099L47.5216 26.405C48.1433 29.6146 47.6516 32.8192 46.2955 35.5877L43.5973 34.0256C42.4559 33.3648 41.431 35.135 42.573 35.7957L45.2706 37.358C43.5447 39.912 41.0105 41.934 37.918 42.9933L37.113 39.9744C36.7732 38.7 34.7967 39.2271 35.1365 40.5014L35.9415 43.5203C32.7323 44.1414 29.5272 43.6498 26.7588 42.2942L28.3209 39.5961C28.9822 38.454 27.2121 37.4296 26.5512 38.5711L24.9891 41.2692C22.4345 39.5434 20.4126 37.0092 19.3538 33.9167L22.3721 33.1118C23.6469 32.7713 23.12 30.7953 21.8451 31.1353Z" fill="#0055FF"/>
<path d="M33.0121 30.4311C33.3695 30.5163 33.77 30.3886 34.0124 30.1174L37.8377 25.8324C38.7166 24.8481 37.1906 23.4864 36.3121 24.47L33.7491 27.3406L32.3646 22.1488C32.0248 20.8745 30.0488 21.4014 30.3887 22.6757L32.2616 29.6997C32.3579 30.0627 32.6465 30.3436 33.0121 30.4311Z" fill="#0055FF"/>
<path fill-rule="evenodd" clip-rule="evenodd" d="M71.1255 6.59316C70.3333 7.72398 68.7743 7.99848 67.6435 7.20626C66.5127 6.41404 66.2382 4.85511 67.0304 3.72429C67.8226 2.59347 69.3816 2.31898 70.5124 3.11119C71.6432 3.90341 71.9177 5.46234 71.1255 6.59316ZM68.0132 4.41282C67.6013 5.00085 67.744 5.81149 68.332 6.22344C68.9201 6.6354 69.7307 6.49266 70.1427 5.90463C70.5546 5.31661 70.4119 4.50596 69.8238 4.09401C69.2358 3.68206 68.4252 3.82479 68.0132 4.41282Z" fill="#FFB700"/>
<path fill-rule="evenodd" clip-rule="evenodd" d="M72.8005 18.145L73.9481 16.5069L74.7671 17.0807L73.6195 18.7187L75.2576 19.8663L74.6838 20.6853L73.0458 19.5378L71.8982 21.1758L71.0792 20.602L72.2267 18.964L70.5887 17.8164L71.1625 16.9974L72.8005 18.145Z" fill="#FFB700"/>
<path fill-rule="evenodd" clip-rule="evenodd" d="M9 66V64H10V66H12V67H10V69H9V67H7V66H9Z" fill="#0055FF"/>
</g>
<defs>
<clipPath id="clip0_12356_54918">
<rect width="80" height="80" fill="white"/>
</clipPath>
</defs>
</svg>
